<?xml version="1.0" encoding="UTF-8"?>
<svg id="Layer_2" data-name="Layer 2" xmlns="http://www.w3.org/2000/svg" viewBox="0 0 1954.26 1080">
  <defs>
    <style>
      .cls-1 {
        letter-spacing: -.04em;
      }

      .cls-2 {
        letter-spacing: -.01em;
      }

      .cls-3 {
        letter-spacing: -.03em;
      }

      .cls-4 {
        font-size: 24px;
      }

      .cls-4, .cls-5, .cls-6, .cls-7, .cls-8, .cls-9 {
        font-family: Poppins-SemiBold, Poppins;
        font-weight: 600;
      }

      .cls-10 {
        font-size: 14px;
      }

      .cls-10, .cls-11, .cls-12, .cls-13 {
        font-family: Lato-Regular, Lato;
      }

      .cls-5 {
        font-size: 32px;
      }

      .cls-6 {
        font-size: 40px;
      }

      .cls-14 {
        letter-spacing: -.01em;
      }

      .cls-7 {
        font-size: 56px;
      }

      .cls-11 {
        font-size: 16px;
      }

      .cls-8 {
        font-size: 64px;
      }

      .cls-12 {
        font-size: 18px;
      }

      .cls-9 {
        font-size: 48px;
      }

      .cls-13 {
        font-size: 20px;
      }

      .cls-15 {
        letter-spacing: 0em;
      }

      .cls-16 {
        letter-spacing: -.03em;
      }
    </style>
  </defs>
  <text class="cls-7" transform="translate(574.27 261.63)"><tspan x="0" y="0">Heading – XL</tspan></text>
  <text class="cls-9" transform="translate(575.62 354.96)"><tspan x="0" y="0">Heading – LG</tspan></text>
  <text class="cls-6" transform="translate(575.62 450.23)"><tspan x="0" y="0">Heading – MD</tspan></text>
  <text class="cls-5" transform="translate(575.62 544.33)"><tspan x="0" y="0">Heading – SM</tspan></text>
  <text class="cls-4" transform="translate(575.62 638.29)"><tspan x="0" y="0">Heading – XS</tspan></text>
  <text class="cls-8" transform="translate(573.41 170.88)"><tspan x="0" y="0">Heading – XXL</tspan></text>
  <text/>
  <text class="cls-13" transform="translate(575.62 736.36)"><tspan x="0" y="0">Body </tspan><tspan class="cls-1" x="49.34" y="0">L</tspan><tspan x="58.82" y="0">G</tspan></text>
  <text class="cls-12" transform="translate(575.62 833.38)"><tspan x="0" y="0">Body MD</tspan></text>
  <text class="cls-11" transform="translate(575.62 934.13)"><tspan x="0" y="0">Body SM</tspan></text>
  <text class="cls-10" transform="translate(575.62 1034.19)"><tspan x="0" y="0">Body XS</tspan></text>
  <text class="cls-10" transform="translate(1223.22 136.41)"><tspan class="cls-3" x="0" y="0">F</tspan><tspan x="7.43" y="0">ont size: 64</tspan><tspan class="cls-16" x="76.86" y="0">p</tspan><tspan x="84.17" y="0">x (4rem)</tspan><tspan x="0" y="16.8">Line height: 72</tspan><tspan class="cls-16" x="89.94" y="16.8">p</tspan><tspan x="97.24" y="16.8">x*</tspan></text>
  <text class="cls-10" transform="translate(1223.22 234.7)"><tspan class="cls-3" x="0" y="0">F</tspan><tspan x="7.43" y="0">ont size: 56</tspan><tspan class="cls-16" x="76.86" y="0">p</tspan><tspan x="84.17" y="0">x (3.5rem)</tspan><tspan x="0" y="16.8">Line height: 64</tspan><tspan class="cls-16" x="89.94" y="16.8">p</tspan><tspan x="97.24" y="16.8">x*</tspan></text>
  <text class="cls-10" transform="translate(1223.22 332.99)"><tspan class="cls-3" x="0" y="0">F</tspan><tspan x="7.43" y="0">ont size: 48</tspan><tspan class="cls-16" x="76.86" y="0">p</tspan><tspan x="84.17" y="0">x (3rem)</tspan><tspan x="0" y="16.8">Line height: 56</tspan><tspan class="cls-16" x="89.94" y="16.8">p</tspan><tspan x="97.24" y="16.8">x*</tspan></text>
  <text class="cls-10" transform="translate(1223.22 433.85)"><tspan class="cls-3" x="0" y="0">F</tspan><tspan x="7.43" y="0">ont size: 40</tspan><tspan class="cls-16" x="76.86" y="0">p</tspan><tspan x="84.17" y="0">x (2.5rem)</tspan><tspan x="0" y="16.8">Line height: 44</tspan><tspan class="cls-16" x="89.94" y="16.8">p</tspan><tspan x="97.24" y="16.8">x*</tspan></text>
  <text class="cls-10" transform="translate(1223.22 529.56)"><tspan class="cls-3" x="0" y="0">F</tspan><tspan x="7.43" y="0">ont size: 32</tspan><tspan class="cls-16" x="76.86" y="0">p</tspan><tspan x="84.17" y="0">x (2rem)</tspan><tspan x="0" y="16.8">Line height: 36</tspan><tspan class="cls-16" x="89.94" y="16.8">p</tspan><tspan x="97.24" y="16.8">x*</tspan></text>
  <text class="cls-10" transform="translate(1223.22 629.8)"><tspan class="cls-3" x="0" y="0">F</tspan><tspan x="7.43" y="0">ont size: 24</tspan><tspan class="cls-16" x="76.86" y="0">p</tspan><tspan x="84.17" y="0">x (1.5rem)</tspan><tspan x="0" y="16.8">Line height: 28</tspan><tspan class="cls-16" x="89.94" y="16.8">p</tspan><tspan x="97.24" y="16.8">x*</tspan></text>
  <text class="cls-10" transform="translate(1223.22 731.29)"><tspan class="cls-3" x="0" y="0">F</tspan><tspan x="7.43" y="0">ont size: 20</tspan><tspan class="cls-16" x="76.86" y="0">p</tspan><tspan x="84.17" y="0">x (1.25rem)</tspan><tspan x="0" y="16.8">Line height: 44</tspan><tspan class="cls-16" x="89.94" y="16.8">p</tspan><tspan x="97.24" y="16.8">x*</tspan></text>
  <text class="cls-10" transform="translate(1223.22 832.78)"><tspan class="cls-3" x="0" y="0">F</tspan><tspan x="7.43" y="0">ont size: 18</tspan><tspan class="cls-16" x="76.86" y="0">p</tspan><tspan x="84.17" y="0">x (1.125rem)</tspan><tspan x="0" y="16.8">Line height: 36</tspan><tspan class="cls-16" x="89.94" y="16.8">p</tspan><tspan x="97.24" y="16.8">x*</tspan></text>
  <text class="cls-10" transform="translate(1223.22 934.27)"><tspan class="cls-3" x="0" y="0">F</tspan><tspan x="7.43" y="0">ont size: 16</tspan><tspan class="cls-16" x="76.86" y="0">p</tspan><tspan x="84.17" y="0">x (1rem)</tspan><tspan x="0" y="16.8">Line height: 24</tspan><tspan class="cls-16" x="89.94" y="16.8">p</tspan><tspan x="97.24" y="16.8">x*</tspan></text>
  <text class="cls-10" transform="translate(1223.22 1035.77)"><tspan class="cls-3" x="0" y="0">F</tspan><tspan x="7.43" y="0">ont size: 14</tspan><tspan class="cls-16" x="76.86" y="0">p</tspan><tspan x="84.17" y="0">x (.875rem)</tspan><tspan x="0" y="16.8">Line height: 22</tspan><tspan class="cls-16" x="89.94" y="16.8">p</tspan><tspan x="97.24" y="16.8">x*</tspan></text>
  <text class="cls-13" transform="translate(576.84 61.08)"><tspan class="cls-2" x="0" y="0">P</tspan><tspan x="11.92" y="0">oppins Semi-Bold for Headings and Lato Regular for body co</tspan><tspan class="cls-14" x="532.23" y="0">p</tspan><tspan class="cls-15" x="543.01" y="0">y:</tspan></text>
</svg>
