<?xml version="1.0" encoding="UTF-8"?>
<svg id="Layer_1" data-name="Layer 1" xmlns="http://www.w3.org/2000/svg" viewBox="0 0 85.97 85.97">
  <defs>
    <style>
      .cls-1 {
        fill: #fff;
        stroke: #231f20;
        stroke-miterlimit: 10;
        stroke-width: 4.11px;
      }

      .cls-2 {
        fill: #231f20;
      }
    </style>
  </defs>
  <circle class="cls-1" cx="42.98" cy="42.98" r="40.93"/>
  <path class="cls-2" d="m25.52,19.24c.72-1.92,6.4-8.58,9.26-7.13,4.29,2.17,8.44,9.5,9.13,12.48,1.02,4.4-8.56,6.92-9.14,8.27s3.04,10.32,3.58,11.7c2.07,5.3-4.66,3.05-4.66,3.05,0,0-9.95-23.63-8.17-28.37Z"/>
  <path class="cls-2" d="m50.61,71.26c1.96.62,10.7.28,11.33-2.87.95-4.71-2.24-12.51-4.16-14.89-2.83-3.52-10.73,2.45-12.15,2.07s-6.46-8.66-6.98-10.05c-.79-2.11-4.99,2.08-4.99,2.08,0,0,12.13,22.12,16.95,23.66Z"/>
</svg>