<?xml version="1.0" encoding="UTF-8"?>
<svg id="Layer_1" data-name="Layer 1" xmlns="http://www.w3.org/2000/svg" viewBox="0 0 85.54 64.82">
  <defs>
    <style>
      .cls-1 {
        fill: #fff;
      }

      .cls-2 {
        fill: #6d6e71;
      }

      .cls-3 {
        fill: #231f20;
      }
    </style>
  </defs>
  <path class="cls-2" d="m19.93,7.37h58.24c4.07,0,7.37,3.3,7.37,7.37v33.72c0,3.47-2.4,6.38-5.64,7.15l-4.45,9.21-15.76-9H19.93c-4.07,0-7.37-3.3-7.37-7.37V14.74c0-4.07,3.3-7.37,7.37-7.37Z"/>
  <path class="cls-3" d="m71.24,0H8C3.58,0,0,3.58,0,8v36.61c0,3.77,2.61,6.92,6.12,7.77l4.83,10,17.12-9.77h43.18c4.42,0,8-3.58,8-8V8c0-4.42-3.58-8-8-8Z"/>
  <g>
    <path class="cls-1" d="m22.43,12.8v3.84h-9.89v6.09h7.58v3.77h-7.58v10.03h-4.76V12.8h14.65Z"/>
    <path class="cls-1" d="m40.35,32.01h-9.45l-1.56,4.52h-5l8.53-23.77h5.54l8.54,23.77h-5.03l-1.56-4.52Zm-1.29-3.81l-3.43-9.93-3.43,9.93h6.87Z"/>
    <path class="cls-1" d="m67.82,40.72l-3.6-4.32c-1,.25-2.02.37-3.06.37-2.22,0-4.26-.52-6.12-1.56-1.86-1.04-3.33-2.49-4.42-4.33-1.09-1.85-1.63-3.94-1.63-6.27s.54-4.39,1.63-6.24c1.09-1.85,2.56-3.29,4.42-4.33,1.86-1.04,3.9-1.56,6.12-1.56s4.29.52,6.14,1.56c1.85,1.04,3.31,2.49,4.39,4.33,1.08,1.85,1.62,3.93,1.62,6.24,0,2.11-.45,4.03-1.34,5.76-.9,1.73-2.11,3.15-3.66,4.23l5.44,6.12h-5.92Zm-13.02-11.93c.61,1.2,1.47,2.12,2.57,2.77,1.1.65,2.36.97,3.79.97s2.69-.32,3.77-.97,1.94-1.57,2.55-2.77c.61-1.2.92-2.6.92-4.18s-.31-2.98-.92-4.17c-.61-1.19-1.46-2.1-2.55-2.74-1.09-.63-2.35-.95-3.77-.95s-2.69.32-3.79.95c-1.1.63-1.96,1.55-2.57,2.74s-.92,2.58-.92,4.17.31,2.98.92,4.18Z"/>
  </g>
</svg>