<?xml version="1.0" encoding="UTF-8"?>
<svg id="Layer_1" data-name="Layer 1" xmlns="http://www.w3.org/2000/svg" viewBox="0 0 97.24 80.58">
  <defs>
    <style>
      .cls-1 {
        fill: #282827;
      }

      .cls-2 {
        fill: #231f20;
      }
    </style>
  </defs>
  <polygon class="cls-2" points="48.54 7.31 1.33 20.4 0 14.92 46.26 2.09 48.54 7.31"/>
  <polygon class="cls-2" points="48.54 7.31 95.91 20.4 97.24 14.92 51.48 2.23 48.54 7.31"/>
  <path class="cls-2" d="m43.64,2.86s5.1-2.42,9.81.18c3.08,1.7-4.9,4.28-4.9,4.28l-4.9-4.46Z"/>
  <rect class="cls-2" x="67.46" width="8.23" height="11.96"/>
  <path class="cls-1" d="m48.54,11.3L11.19,20.38v37.58c0,4.56,3.6,8.76,9.45,11.19l27.9,11.42,27.9-11.48c5.85-2.43,9.45-6.63,9.45-11.19V20.38s-37.35-9.09-37.35-9.09Zm32.49,46.61c0,3.49-2.7,6.63-7.11,8.52l-25.38,10.42-25.29-10.42c-4.5-1.83-7.2-5.03-7.2-8.52V22.99l32.49-6.77,32.49,6.77v34.92Z"/>
  <path class="cls-1" d="m22.09,24.32v32.8c0,1.94,1.53,3.7,4.01,4.77l22.79,9.34,22.79-9.41c2.48-1,4.01-2.82,4.01-4.7V24.38l-26.8-3.2-26.8,3.2v-.06Z"/>
</svg>