<?xml version="1.0" encoding="UTF-8"?>
<svg id="Layer_1" data-name="Layer 1" xmlns="http://www.w3.org/2000/svg" viewBox="0 0 70.74 91.92">
  <defs>
    <style>
      .cls-1 {
        fill: #fff;
      }

      .cls-2 {
        fill: orange;
      }

      .cls-3 {
        fill: #231f20;
      }
    </style>
  </defs>
  <path class="cls-3" d="m46.61,79.51c0,6.85-5.55,12.4-12.4,12.4s-12.4-5.55-12.4-12.4"/>
  <path class="cls-3" d="m5.13,67.11c0-31.31,0-56.69,29.08-56.69s29.08,25.38,29.08,56.69"/>
  <path class="cls-3" d="m25.56,16.55c0-7.15,0-12.95,8.65-12.95s8.65,5.8,8.65,12.95"/>
  <path class="cls-3" d="m67.62,76.63H.81c-.59,0-.98-.61-.74-1.14l5.06-11.16h58.16l5.06,11.16c.24.54-.15,1.14-.74,1.14Z"/>
  <circle class="cls-2" cx="52.92" cy="17.82" r="17.82"/>
  <path class="cls-1" d="m46.51,23.49c2.17-1.81,3.9-3.32,5.19-4.53,1.29-1.21,2.36-2.47,3.22-3.78.86-1.31,1.29-2.6,1.29-3.87,0-1.15-.27-2.06-.81-2.71-.54-.66-1.38-.98-2.51-.98s-2,.38-2.61,1.14-.93,1.79-.95,3.1h-4.61c.09-2.71.9-4.77,2.42-6.17,1.53-1.4,3.46-2.1,5.82-2.1,2.58,0,4.55.68,5.93,2.05,1.38,1.37,2.07,3.17,2.07,5.41,0,1.76-.47,3.45-1.42,5.05-.95,1.61-2.03,3-3.25,4.19s-2.81,2.62-4.78,4.29h10v3.93h-16.75v-3.53l1.76-1.49Z"/>
</svg>