<svg width="1229" height="956" viewBox="0 0 1229 956" fill="none" xmlns="http://www.w3.org/2000/svg">
<g clip-path="url(#clip0_5_11)">
<path d="M250 0H0V250H250V0Z" fill="#FFA500"/>
<path d="M897.18 0H647.18V250H897.18V0Z" fill="#FF652D"/>
<path d="M1228.46 0H978.46V250H1228.46V0Z" fill="#E70303"/>
<path d="M575.21 0H325.21V250H575.21V0Z" fill="#6FCE72"/>
<path d="M186.012 236.372H170.444L167.868 243.82H159.636L173.692 204.676H182.82L196.876 243.82H188.588L186.012 236.372ZM183.884 230.1L178.228 213.748L172.572 230.1H183.884ZM226.098 236.372H210.53L207.954 243.82H199.722L213.778 204.676H222.906L236.962 243.82H228.674L226.098 236.372ZM223.97 230.1L218.314 213.748L212.658 230.1H223.97Z" fill="white"/>
<path d="M461.052 236.372H445.484L442.908 243.82H434.676L448.732 204.676H457.86L471.916 243.82H463.628L461.052 236.372ZM458.924 230.1L453.268 213.748L447.612 230.1H458.924ZM501.138 236.372H485.57L482.994 243.82H474.762L488.818 204.676H497.946L512.002 243.82H503.714L501.138 236.372ZM499.01 230.1L493.354 213.748L487.698 230.1H499.01ZM541.224 236.372H525.656L523.08 243.82H514.848L528.904 204.676H538.032L552.088 243.82H543.8L541.224 236.372ZM539.096 230.1L533.44 213.748L527.784 230.1H539.096Z" fill="white"/>
<path d="M785.472 236.372H769.904L767.328 243.82H759.096L773.152 204.676H782.28L796.336 243.82H788.048L785.472 236.372ZM783.344 230.1L777.688 213.748L772.032 230.1H783.344ZM825.558 236.372H809.99L807.414 243.82H799.182L813.238 204.676H822.366L836.422 243.82H828.134L825.558 236.372ZM823.43 230.1L817.774 213.748L812.118 230.1H823.43ZM865.644 236.372H850.076L847.5 243.82H839.268L853.324 204.676H862.452L876.508 243.82H868.22L865.644 236.372ZM863.516 230.1L857.86 213.748L852.204 230.1H863.516Z" fill="white"/>
<path d="M7.134 271.954C7.198 271.954 7.254 271.98 7.302 272.032L7.764 272.53C7.412 272.938 6.984 273.256 6.48 273.484C5.98 273.712 5.374 273.826 4.662 273.826C4.046 273.826 3.486 273.72 2.982 273.508C2.478 273.292 2.048 272.992 1.692 272.608C1.336 272.22 1.06 271.756 0.864 271.216C0.668 270.676 0.57 270.082 0.57 269.434C0.57 268.786 0.672 268.192 0.876 267.652C1.08 267.112 1.366 266.648 1.734 266.26C2.106 265.872 2.55 265.572 3.066 265.36C3.582 265.144 4.152 265.036 4.776 265.036C5.388 265.036 5.928 265.134 6.396 265.33C6.864 265.526 7.276 265.792 7.632 266.128L7.248 266.662C7.224 266.702 7.192 266.736 7.152 266.764C7.116 266.788 7.066 266.8 7.002 266.8C6.93 266.8 6.842 266.762 6.738 266.686C6.634 266.606 6.498 266.518 6.33 266.422C6.162 266.326 5.952 266.24 5.7 266.164C5.448 266.084 5.138 266.044 4.77 266.044C4.326 266.044 3.92 266.122 3.552 266.278C3.184 266.43 2.866 266.652 2.598 266.944C2.334 267.236 2.128 267.592 1.98 268.012C1.832 268.432 1.758 268.906 1.758 269.434C1.758 269.97 1.834 270.448 1.986 270.868C2.142 271.288 2.352 271.644 2.616 271.936C2.884 272.224 3.198 272.444 3.558 272.596C3.922 272.748 4.314 272.824 4.734 272.824C4.99 272.824 5.22 272.81 5.424 272.782C5.632 272.75 5.822 272.702 5.994 272.638C6.17 272.574 6.332 272.494 6.48 272.398C6.632 272.298 6.782 272.18 6.93 272.044C6.998 271.984 7.066 271.954 7.134 271.954ZM9.96563 264.892V273.73H8.89762V264.892H9.96563ZM12.8256 267.652V273.73H11.7576V267.652H12.8256ZM13.0536 265.744C13.0536 265.848 13.0316 265.946 12.9876 266.038C12.9476 266.126 12.8916 266.206 12.8196 266.278C12.7516 266.346 12.6696 266.4 12.5736 266.44C12.4816 266.48 12.3836 266.5 12.2796 266.5C12.1756 266.5 12.0776 266.48 11.9856 266.44C11.8976 266.4 11.8196 266.346 11.7516 266.278C11.6836 266.206 11.6296 266.126 11.5896 266.038C11.5496 265.946 11.5296 265.848 11.5296 265.744C11.5296 265.64 11.5496 265.542 11.5896 265.45C11.6296 265.354 11.6836 265.272 11.7516 265.204C11.8196 265.132 11.8976 265.076 11.9856 265.036C12.0776 264.996 12.1756 264.976 12.2796 264.976C12.3836 264.976 12.4816 264.996 12.5736 265.036C12.6696 265.076 12.7516 265.132 12.8196 265.204C12.8916 265.272 12.9476 265.354 12.9876 265.45C13.0316 265.542 13.0536 265.64 13.0536 265.744ZM18.8104 268.732C18.7784 268.776 18.7464 268.81 18.7144 268.834C18.6824 268.858 18.6384 268.87 18.5824 268.87C18.5224 268.87 18.4564 268.846 18.3844 268.798C18.3124 268.746 18.2224 268.69 18.1144 268.63C18.0104 268.57 17.8804 268.516 17.7244 268.468C17.5724 268.416 17.3844 268.39 17.1604 268.39C16.8604 268.39 16.5964 268.444 16.3684 268.552C16.1404 268.656 15.9484 268.808 15.7924 269.008C15.6404 269.208 15.5244 269.45 15.4444 269.734C15.3684 270.018 15.3304 270.336 15.3304 270.688C15.3304 271.056 15.3724 271.384 15.4564 271.672C15.5404 271.956 15.6584 272.196 15.8104 272.392C15.9664 272.584 16.1524 272.732 16.3684 272.836C16.5884 272.936 16.8344 272.986 17.1064 272.986C17.3664 272.986 17.5804 272.956 17.7484 272.896C17.9164 272.832 18.0544 272.762 18.1624 272.686C18.2744 272.61 18.3664 272.542 18.4384 272.482C18.5144 272.418 18.5884 272.386 18.6604 272.386C18.7484 272.386 18.8164 272.42 18.8644 272.488L19.1644 272.878C19.0324 273.042 18.8824 273.182 18.7144 273.298C18.5464 273.414 18.3644 273.512 18.1684 273.592C17.9764 273.668 17.7744 273.724 17.5624 273.76C17.3504 273.796 17.1344 273.814 16.9144 273.814C16.5344 273.814 16.1804 273.744 15.8524 273.604C15.5284 273.464 15.2464 273.262 15.0064 272.998C14.7664 272.73 14.5784 272.402 14.4424 272.014C14.3064 271.626 14.2384 271.184 14.2384 270.688C14.2384 270.236 14.3004 269.818 14.4244 269.434C14.5524 269.05 14.7364 268.72 14.9764 268.444C15.2204 268.164 15.5184 267.946 15.8704 267.79C16.2264 267.634 16.6344 267.556 17.0944 267.556C17.5224 267.556 17.8984 267.626 18.2224 267.766C18.5504 267.902 18.8404 268.096 19.0924 268.348L18.8104 268.732ZM21.3848 264.892V270.094H21.6608C21.7408 270.094 21.8068 270.084 21.8588 270.064C21.9148 270.04 21.9728 269.994 22.0328 269.926L23.9528 267.868C24.0088 267.8 24.0668 267.748 24.1268 267.712C24.1908 267.672 24.2748 267.652 24.3788 267.652H25.3448L23.1068 270.034C22.9988 270.17 22.8828 270.276 22.7588 270.352C22.8308 270.4 22.8948 270.456 22.9508 270.52C23.0108 270.58 23.0668 270.65 23.1188 270.73L25.4948 273.73H24.5408C24.4488 273.73 24.3688 273.716 24.3008 273.688C24.2368 273.656 24.1808 273.6 24.1328 273.52L22.1348 271.03C22.0748 270.946 22.0148 270.892 21.9548 270.868C21.8988 270.84 21.8108 270.826 21.6908 270.826H21.3848V273.73H20.3108V264.892H21.3848Z" fill="white"/>
<path d="M330.706 266.466C330.67 266.526 330.63 266.572 330.586 266.604C330.546 266.632 330.496 266.646 330.436 266.646C330.368 266.646 330.288 266.612 330.196 266.544C330.104 266.476 329.988 266.402 329.848 266.322C329.712 266.238 329.546 266.162 329.35 266.094C329.158 266.026 328.924 265.992 328.648 265.992C328.388 265.992 328.158 266.028 327.958 266.1C327.762 266.168 327.596 266.262 327.46 266.382C327.328 266.502 327.228 266.644 327.16 266.808C327.092 266.968 327.058 267.142 327.058 267.33C327.058 267.57 327.116 267.77 327.232 267.93C327.352 268.086 327.508 268.22 327.7 268.332C327.896 268.444 328.116 268.542 328.36 268.626C328.608 268.706 328.86 268.79 329.116 268.878C329.376 268.966 329.628 269.066 329.872 269.178C330.12 269.286 330.34 269.424 330.532 269.592C330.728 269.76 330.884 269.966 331 270.21C331.12 270.454 331.18 270.754 331.18 271.11C331.18 271.486 331.116 271.84 330.988 272.172C330.86 272.5 330.672 272.786 330.424 273.03C330.18 273.274 329.878 273.466 329.518 273.606C329.162 273.746 328.756 273.816 328.3 273.816C327.74 273.816 327.232 273.716 326.776 273.516C326.32 273.312 325.93 273.038 325.606 272.694L325.942 272.142C325.974 272.098 326.012 272.062 326.056 272.034C326.104 272.002 326.156 271.986 326.212 271.986C326.264 271.986 326.322 272.008 326.386 272.052C326.454 272.092 326.53 272.144 326.614 272.208C326.698 272.272 326.794 272.342 326.902 272.418C327.01 272.494 327.132 272.564 327.268 272.628C327.408 272.692 327.566 272.746 327.742 272.79C327.918 272.83 328.116 272.85 328.336 272.85C328.612 272.85 328.858 272.812 329.074 272.736C329.29 272.66 329.472 272.554 329.62 272.418C329.772 272.278 329.888 272.112 329.968 271.92C330.048 271.728 330.088 271.514 330.088 271.278C330.088 271.018 330.028 270.806 329.908 270.642C329.792 270.474 329.638 270.334 329.446 270.222C329.254 270.11 329.034 270.016 328.786 269.94C328.538 269.86 328.286 269.78 328.03 269.7C327.774 269.616 327.522 269.52 327.274 269.412C327.026 269.304 326.806 269.164 326.614 268.992C326.422 268.82 326.266 268.606 326.146 268.35C326.03 268.09 325.972 267.77 325.972 267.39C325.972 267.086 326.03 266.792 326.146 266.508C326.266 266.224 326.438 265.972 326.662 265.752C326.89 265.532 327.168 265.356 327.496 265.224C327.828 265.092 328.208 265.026 328.636 265.026C329.116 265.026 329.552 265.102 329.944 265.254C330.34 265.406 330.688 265.626 330.988 265.914L330.706 266.466ZM337.452 267.642V273.72H336.816C336.664 273.72 336.568 273.646 336.528 273.498L336.444 272.844C336.18 273.136 335.884 273.372 335.556 273.552C335.228 273.728 334.852 273.816 334.428 273.816C334.096 273.816 333.802 273.762 333.546 273.654C333.294 273.542 333.082 273.386 332.91 273.186C332.738 272.986 332.608 272.744 332.52 272.46C332.436 272.176 332.394 271.862 332.394 271.518V267.642H333.462V271.518C333.462 271.978 333.566 272.334 333.774 272.586C333.986 272.838 334.308 272.964 334.74 272.964C335.056 272.964 335.35 272.89 335.622 272.742C335.898 272.59 336.152 272.382 336.384 272.118V267.642H337.452ZM343.376 268.722C343.344 268.766 343.312 268.8 343.28 268.824C343.248 268.848 343.204 268.86 343.148 268.86C343.088 268.86 343.022 268.836 342.95 268.788C342.878 268.736 342.788 268.68 342.68 268.62C342.576 268.56 342.446 268.506 342.29 268.458C342.138 268.406 341.95 268.38 341.726 268.38C341.426 268.38 341.162 268.434 340.934 268.542C340.706 268.646 340.514 268.798 340.358 268.998C340.206 269.198 340.09 269.44 340.01 269.724C339.934 270.008 339.896 270.326 339.896 270.678C339.896 271.046 339.938 271.374 340.022 271.662C340.106 271.946 340.224 272.186 340.376 272.382C340.532 272.574 340.718 272.722 340.934 272.826C341.154 272.926 341.4 272.976 341.672 272.976C341.932 272.976 342.146 272.946 342.314 272.886C342.482 272.822 342.62 272.752 342.728 272.676C342.84 272.6 342.932 272.532 343.004 272.472C343.08 272.408 343.154 272.376 343.226 272.376C343.314 272.376 343.382 272.41 343.43 272.478L343.73 272.868C343.598 273.032 343.448 273.172 343.28 273.288C343.112 273.404 342.93 273.502 342.734 273.582C342.542 273.658 342.34 273.714 342.128 273.75C341.916 273.786 341.7 273.804 341.48 273.804C341.1 273.804 340.746 273.734 340.418 273.594C340.094 273.454 339.812 273.252 339.572 272.988C339.332 272.72 339.144 272.392 339.008 272.004C338.872 271.616 338.804 271.174 338.804 270.678C338.804 270.226 338.866 269.808 338.99 269.424C339.118 269.04 339.302 268.71 339.542 268.434C339.786 268.154 340.084 267.936 340.436 267.78C340.792 267.624 341.2 267.546 341.66 267.546C342.088 267.546 342.464 267.616 342.788 267.756C343.116 267.892 343.406 268.086 343.658 268.338L343.376 268.722ZM349.001 268.722C348.969 268.766 348.937 268.8 348.905 268.824C348.873 268.848 348.829 268.86 348.773 268.86C348.713 268.86 348.647 268.836 348.575 268.788C348.503 268.736 348.413 268.68 348.305 268.62C348.201 268.56 348.071 268.506 347.915 268.458C347.763 268.406 347.575 268.38 347.351 268.38C347.051 268.38 346.787 268.434 346.559 268.542C346.331 268.646 346.139 268.798 345.983 268.998C345.831 269.198 345.715 269.44 345.635 269.724C345.559 270.008 345.521 270.326 345.521 270.678C345.521 271.046 345.563 271.374 345.647 271.662C345.731 271.946 345.849 272.186 346.001 272.382C346.157 272.574 346.343 272.722 346.559 272.826C346.779 272.926 347.025 272.976 347.297 272.976C347.557 272.976 347.771 272.946 347.939 272.886C348.107 272.822 348.245 272.752 348.353 272.676C348.465 272.6 348.557 272.532 348.629 272.472C348.705 272.408 348.779 272.376 348.851 272.376C348.939 272.376 349.007 272.41 349.055 272.478L349.355 272.868C349.223 273.032 349.073 273.172 348.905 273.288C348.737 273.404 348.555 273.502 348.359 273.582C348.167 273.658 347.965 273.714 347.753 273.75C347.541 273.786 347.325 273.804 347.105 273.804C346.725 273.804 346.371 273.734 346.043 273.594C345.719 273.454 345.437 273.252 345.197 272.988C344.957 272.72 344.769 272.392 344.633 272.004C344.497 271.616 344.429 271.174 344.429 270.678C344.429 270.226 344.491 269.808 344.615 269.424C344.743 269.04 344.927 268.71 345.167 268.434C345.411 268.154 345.709 267.936 346.061 267.78C346.417 267.624 346.825 267.546 347.285 267.546C347.713 267.546 348.089 267.616 348.413 267.756C348.741 267.892 349.031 268.086 349.283 268.338L349.001 268.722ZM354.464 270.018C354.464 269.77 354.428 269.544 354.356 269.34C354.288 269.132 354.186 268.954 354.05 268.806C353.918 268.654 353.756 268.538 353.564 268.458C353.372 268.374 353.154 268.332 352.91 268.332C352.398 268.332 351.992 268.482 351.692 268.782C351.396 269.078 351.212 269.49 351.14 270.018H354.464ZM355.328 272.868C355.196 273.028 355.038 273.168 354.854 273.288C354.67 273.404 354.472 273.5 354.26 273.576C354.052 273.652 353.836 273.708 353.612 273.744C353.388 273.784 353.166 273.804 352.946 273.804C352.526 273.804 352.138 273.734 351.782 273.594C351.43 273.45 351.124 273.242 350.864 272.97C350.608 272.694 350.408 272.354 350.264 271.95C350.12 271.546 350.048 271.082 350.048 270.558C350.048 270.134 350.112 269.738 350.24 269.37C350.372 269.002 350.56 268.684 350.804 268.416C351.048 268.144 351.346 267.932 351.698 267.78C352.05 267.624 352.446 267.546 352.886 267.546C353.25 267.546 353.586 267.608 353.894 267.732C354.206 267.852 354.474 268.028 354.698 268.26C354.926 268.488 355.104 268.772 355.232 269.112C355.36 269.448 355.424 269.832 355.424 270.264C355.424 270.432 355.406 270.544 355.37 270.6C355.334 270.656 355.266 270.684 355.166 270.684H351.104C351.116 271.068 351.168 271.402 351.26 271.686C351.356 271.97 351.488 272.208 351.656 272.4C351.824 272.588 352.024 272.73 352.256 272.826C352.488 272.918 352.748 272.964 353.036 272.964C353.304 272.964 353.534 272.934 353.726 272.874C353.922 272.81 354.09 272.742 354.23 272.67C354.37 272.598 354.486 272.532 354.578 272.472C354.674 272.408 354.756 272.376 354.824 272.376C354.912 272.376 354.98 272.41 355.028 272.478L355.328 272.868ZM360.276 268.644C360.228 268.732 360.154 268.776 360.054 268.776C359.994 268.776 359.926 268.754 359.85 268.71C359.774 268.666 359.68 268.618 359.568 268.566C359.46 268.51 359.33 268.46 359.178 268.416C359.026 268.368 358.846 268.344 358.638 268.344C358.458 268.344 358.296 268.368 358.152 268.416C358.008 268.46 357.884 268.522 357.78 268.602C357.68 268.682 357.602 268.776 357.546 268.884C357.494 268.988 357.468 269.102 357.468 269.226C357.468 269.382 357.512 269.512 357.6 269.616C357.692 269.72 357.812 269.81 357.96 269.886C358.108 269.962 358.276 270.03 358.464 270.09C358.652 270.146 358.844 270.208 359.04 270.276C359.24 270.34 359.434 270.412 359.622 270.492C359.81 270.572 359.978 270.672 360.126 270.792C360.274 270.912 360.392 271.06 360.48 271.236C360.572 271.408 360.618 271.616 360.618 271.86C360.618 272.14 360.568 272.4 360.468 272.64C360.368 272.876 360.22 273.082 360.024 273.258C359.828 273.43 359.588 273.566 359.304 273.666C359.02 273.766 358.692 273.816 358.32 273.816C357.896 273.816 357.512 273.748 357.168 273.612C356.824 273.472 356.532 273.294 356.292 273.078L356.544 272.67C356.576 272.618 356.614 272.578 356.658 272.55C356.702 272.522 356.758 272.508 356.826 272.508C356.898 272.508 356.974 272.536 357.054 272.592C357.134 272.648 357.23 272.71 357.342 272.778C357.458 272.846 357.598 272.908 357.762 272.964C357.926 273.02 358.13 273.048 358.374 273.048C358.582 273.048 358.764 273.022 358.92 272.97C359.076 272.914 359.206 272.84 359.31 272.748C359.414 272.656 359.49 272.55 359.538 272.43C359.59 272.31 359.616 272.182 359.616 272.046C359.616 271.878 359.57 271.74 359.478 271.632C359.39 271.52 359.272 271.426 359.124 271.35C358.976 271.27 358.806 271.202 358.614 271.146C358.426 271.086 358.232 271.024 358.032 270.96C357.836 270.896 357.642 270.824 357.45 270.744C357.262 270.66 357.094 270.556 356.946 270.432C356.798 270.308 356.678 270.156 356.586 269.976C356.498 269.792 356.454 269.57 356.454 269.31C356.454 269.078 356.502 268.856 356.598 268.644C356.694 268.428 356.834 268.24 357.018 268.08C357.202 267.916 357.428 267.786 357.696 267.69C357.964 267.594 358.27 267.546 358.614 267.546C359.014 267.546 359.372 267.61 359.688 267.738C360.008 267.862 360.284 268.034 360.516 268.254L360.276 268.644ZM365.467 268.644C365.419 268.732 365.345 268.776 365.245 268.776C365.185 268.776 365.117 268.754 365.041 268.71C364.965 268.666 364.871 268.618 364.759 268.566C364.651 268.51 364.521 268.46 364.369 268.416C364.217 268.368 364.037 268.344 363.829 268.344C363.649 268.344 363.487 268.368 363.343 268.416C363.199 268.46 363.075 268.522 362.971 268.602C362.871 268.682 362.793 268.776 362.737 268.884C362.685 268.988 362.659 269.102 362.659 269.226C362.659 269.382 362.703 269.512 362.791 269.616C362.883 269.72 363.003 269.81 363.151 269.886C363.299 269.962 363.467 270.03 363.655 270.09C363.843 270.146 364.035 270.208 364.231 270.276C364.431 270.34 364.625 270.412 364.813 270.492C365.001 270.572 365.169 270.672 365.317 270.792C365.465 270.912 365.583 271.06 365.671 271.236C365.763 271.408 365.809 271.616 365.809 271.86C365.809 272.14 365.759 272.4 365.659 272.64C365.559 272.876 365.411 273.082 365.215 273.258C365.019 273.43 364.779 273.566 364.495 273.666C364.211 273.766 363.883 273.816 363.511 273.816C363.087 273.816 362.703 273.748 362.359 273.612C362.015 273.472 361.723 273.294 361.483 273.078L361.735 272.67C361.767 272.618 361.805 272.578 361.849 272.55C361.893 272.522 361.949 272.508 362.017 272.508C362.089 272.508 362.165 272.536 362.245 272.592C362.325 272.648 362.421 272.71 362.533 272.778C362.649 272.846 362.789 272.908 362.953 272.964C363.117 273.02 363.321 273.048 363.565 273.048C363.773 273.048 363.955 273.022 364.111 272.97C364.267 272.914 364.397 272.84 364.501 272.748C364.605 272.656 364.681 272.55 364.729 272.43C364.781 272.31 364.807 272.182 364.807 272.046C364.807 271.878 364.761 271.74 364.669 271.632C364.581 271.52 364.463 271.426 364.315 271.35C364.167 271.27 363.997 271.202 363.805 271.146C363.617 271.086 363.423 271.024 363.223 270.96C363.027 270.896 362.833 270.824 362.641 270.744C362.453 270.66 362.285 270.556 362.137 270.432C361.989 270.308 361.869 270.156 361.777 269.976C361.689 269.792 361.645 269.57 361.645 269.31C361.645 269.078 361.693 268.856 361.789 268.644C361.885 268.428 362.025 268.24 362.209 268.08C362.393 267.916 362.619 267.786 362.887 267.69C363.155 267.594 363.461 267.546 363.805 267.546C364.205 267.546 364.563 267.61 364.879 267.738C365.199 267.862 365.475 268.034 365.707 268.254L365.467 268.644Z" fill="white"/>
<path d="M659.42 265.122L656.738 273.72H655.694L653.516 267.162C653.496 267.098 653.476 267.03 653.456 266.958C653.44 266.886 653.422 266.81 653.402 266.73C653.382 266.81 653.362 266.886 653.342 266.958C653.322 267.03 653.302 267.098 653.282 267.162L651.092 273.72H650.048L647.366 265.122H648.332C648.436 265.122 648.522 265.148 648.59 265.2C648.662 265.252 648.708 265.318 648.728 265.398L650.504 271.374C650.532 271.482 650.558 271.598 650.582 271.722C650.61 271.846 650.636 271.978 650.66 272.118C650.688 271.978 650.716 271.846 650.744 271.722C650.776 271.594 650.81 271.478 650.846 271.374L652.868 265.398C652.892 265.33 652.938 265.268 653.006 265.212C653.078 265.152 653.164 265.122 653.264 265.122H653.6C653.704 265.122 653.788 265.148 653.852 265.2C653.916 265.252 653.964 265.318 653.996 265.398L656.012 271.374C656.048 271.478 656.08 271.59 656.108 271.71C656.14 271.83 656.17 271.956 656.198 272.088C656.218 271.956 656.24 271.83 656.264 271.71C656.288 271.59 656.314 271.478 656.342 271.374L658.124 265.398C658.144 265.326 658.188 265.262 658.256 265.206C658.328 265.15 658.414 265.122 658.514 265.122H659.42ZM663.062 270.984C662.57 271 662.15 271.04 661.802 271.104C661.458 271.164 661.176 271.244 660.956 271.344C660.74 271.444 660.582 271.562 660.482 271.698C660.386 271.834 660.338 271.986 660.338 272.154C660.338 272.314 660.364 272.452 660.416 272.568C660.468 272.684 660.538 272.78 660.626 272.856C660.718 272.928 660.824 272.982 660.944 273.018C661.068 273.05 661.2 273.066 661.34 273.066C661.528 273.066 661.7 273.048 661.856 273.012C662.012 272.972 662.158 272.916 662.294 272.844C662.434 272.772 662.566 272.686 662.69 272.586C662.818 272.486 662.942 272.372 663.062 272.244V270.984ZM659.612 268.5C659.948 268.176 660.31 267.934 660.698 267.774C661.086 267.614 661.516 267.534 661.988 267.534C662.328 267.534 662.63 267.59 662.894 267.702C663.158 267.814 663.38 267.97 663.56 268.17C663.74 268.37 663.876 268.612 663.968 268.896C664.06 269.18 664.106 269.492 664.106 269.832V273.72H663.632C663.528 273.72 663.448 273.704 663.392 273.672C663.336 273.636 663.292 273.568 663.26 273.468L663.14 272.892C662.98 273.04 662.824 273.172 662.672 273.288C662.52 273.4 662.36 273.496 662.192 273.576C662.024 273.652 661.844 273.71 661.652 273.75C661.464 273.794 661.254 273.816 661.022 273.816C660.786 273.816 660.564 273.784 660.356 273.72C660.148 273.652 659.966 273.552 659.81 273.42C659.658 273.288 659.536 273.122 659.444 272.922C659.356 272.718 659.312 272.478 659.312 272.202C659.312 271.962 659.378 271.732 659.51 271.512C659.642 271.288 659.856 271.09 660.152 270.918C660.448 270.746 660.834 270.606 661.31 270.498C661.786 270.386 662.37 270.322 663.062 270.306V269.832C663.062 269.36 662.96 269.004 662.756 268.764C662.552 268.52 662.254 268.398 661.862 268.398C661.598 268.398 661.376 268.432 661.196 268.5C661.02 268.564 660.866 268.638 660.734 268.722C660.606 268.802 660.494 268.876 660.398 268.944C660.306 269.008 660.214 269.04 660.122 269.04C660.05 269.04 659.988 269.022 659.936 268.986C659.884 268.946 659.84 268.898 659.804 268.842L659.612 268.5ZM666.747 268.86C666.939 268.444 667.175 268.12 667.455 267.888C667.735 267.652 668.077 267.534 668.481 267.534C668.609 267.534 668.731 267.548 668.847 267.576C668.967 267.604 669.073 267.648 669.165 267.708L669.087 268.506C669.063 268.606 669.003 268.656 668.907 268.656C668.851 268.656 668.769 268.644 668.661 268.62C668.553 268.596 668.431 268.584 668.295 268.584C668.103 268.584 667.931 268.612 667.779 268.668C667.631 268.724 667.497 268.808 667.377 268.92C667.261 269.028 667.155 269.164 667.059 269.328C666.967 269.488 666.883 269.672 666.807 269.88V273.72H665.733V267.642H666.345C666.461 267.642 666.541 267.664 666.585 267.708C666.629 267.752 666.659 267.828 666.675 267.936L666.747 268.86ZM671.112 268.524C671.244 268.376 671.384 268.242 671.532 268.122C671.68 268.002 671.836 267.9 672 267.816C672.168 267.728 672.344 267.662 672.528 267.618C672.716 267.57 672.918 267.546 673.134 267.546C673.466 267.546 673.758 267.602 674.01 267.714C674.266 267.822 674.478 267.978 674.646 268.182C674.818 268.382 674.948 268.624 675.036 268.908C675.124 269.192 675.168 269.506 675.168 269.85V273.72H674.094V269.85C674.094 269.39 673.988 269.034 673.776 268.782C673.568 268.526 673.25 268.398 672.822 268.398C672.506 268.398 672.21 268.474 671.934 268.626C671.662 268.778 671.41 268.984 671.178 269.244V273.72H670.104V267.642H670.746C670.898 267.642 670.992 267.716 671.028 267.864L671.112 268.524ZM677.923 267.642V273.72H676.855V267.642H677.923ZM678.151 265.734C678.151 265.838 678.129 265.936 678.085 266.028C678.045 266.116 677.989 266.196 677.917 266.268C677.849 266.336 677.767 266.39 677.671 266.43C677.579 266.47 677.481 266.49 677.377 266.49C677.273 266.49 677.175 266.47 677.083 266.43C676.995 266.39 676.917 266.336 676.849 266.268C676.781 266.196 676.727 266.116 676.687 266.028C676.647 265.936 676.627 265.838 676.627 265.734C676.627 265.63 676.647 265.532 676.687 265.44C676.727 265.344 676.781 265.262 676.849 265.194C676.917 265.122 676.995 265.066 677.083 265.026C677.175 264.986 677.273 264.966 677.377 264.966C677.481 264.966 677.579 264.986 677.671 265.026C677.767 265.066 677.849 265.122 677.917 265.194C677.989 265.262 678.045 265.344 678.085 265.44C678.129 265.532 678.151 265.63 678.151 265.734ZM680.686 268.524C680.818 268.376 680.958 268.242 681.106 268.122C681.254 268.002 681.41 267.9 681.574 267.816C681.742 267.728 681.918 267.662 682.102 267.618C682.29 267.57 682.492 267.546 682.708 267.546C683.04 267.546 683.332 267.602 683.584 267.714C683.84 267.822 684.052 267.978 684.22 268.182C684.392 268.382 684.522 268.624 684.61 268.908C684.698 269.192 684.742 269.506 684.742 269.85V273.72H683.668V269.85C683.668 269.39 683.562 269.034 683.35 268.782C683.142 268.526 682.824 268.398 682.396 268.398C682.08 268.398 681.784 268.474 681.508 268.626C681.236 268.778 680.984 268.984 680.752 269.244V273.72H679.678V267.642H680.32C680.472 267.642 680.566 267.716 680.602 267.864L680.686 268.524ZM688.488 270.75C688.704 270.75 688.894 270.72 689.058 270.66C689.222 270.6 689.36 270.516 689.472 270.408C689.584 270.3 689.668 270.172 689.724 270.024C689.78 269.872 689.808 269.706 689.808 269.526C689.808 269.154 689.694 268.858 689.466 268.638C689.242 268.418 688.916 268.308 688.488 268.308C688.056 268.308 687.726 268.418 687.498 268.638C687.274 268.858 687.162 269.154 687.162 269.526C687.162 269.706 687.19 269.872 687.246 270.024C687.306 270.172 687.392 270.3 687.504 270.408C687.616 270.516 687.754 270.6 687.918 270.66C688.082 270.72 688.272 270.75 688.488 270.75ZM690.414 274.05C690.414 273.902 690.372 273.782 690.288 273.69C690.204 273.598 690.09 273.526 689.946 273.474C689.806 273.422 689.642 273.386 689.454 273.366C689.266 273.342 689.066 273.324 688.854 273.312C688.646 273.3 688.434 273.288 688.218 273.276C688.002 273.264 687.794 273.244 687.594 273.216C687.37 273.32 687.186 273.452 687.042 273.612C686.902 273.768 686.832 273.952 686.832 274.164C686.832 274.3 686.866 274.426 686.934 274.542C687.006 274.662 687.114 274.764 687.258 274.848C687.402 274.936 687.582 275.004 687.798 275.052C688.018 275.104 688.276 275.13 688.572 275.13C688.86 275.13 689.118 275.104 689.346 275.052C689.574 275 689.766 274.926 689.922 274.83C690.082 274.734 690.204 274.62 690.288 274.488C690.372 274.356 690.414 274.21 690.414 274.05ZM691.5 267.882V268.278C691.5 268.41 691.416 268.494 691.248 268.53L690.558 268.62C690.694 268.884 690.762 269.176 690.762 269.496C690.762 269.792 690.704 270.062 690.588 270.306C690.476 270.546 690.32 270.752 690.12 270.924C689.92 271.096 689.68 271.228 689.4 271.32C689.12 271.412 688.816 271.458 688.488 271.458C688.204 271.458 687.936 271.424 687.684 271.356C687.556 271.436 687.458 271.522 687.39 271.614C687.322 271.702 687.288 271.792 687.288 271.884C687.288 272.028 687.346 272.138 687.462 272.214C687.582 272.286 687.738 272.338 687.93 272.37C688.122 272.402 688.34 272.422 688.584 272.43C688.832 272.438 689.084 272.452 689.34 272.472C689.6 272.488 689.852 272.518 690.096 272.562C690.344 272.606 690.564 272.678 690.756 272.778C690.948 272.878 691.102 273.016 691.218 273.192C691.338 273.368 691.398 273.596 691.398 273.876C691.398 274.136 691.332 274.388 691.2 274.632C691.072 274.876 690.886 275.092 690.642 275.28C690.398 275.472 690.098 275.624 689.742 275.736C689.39 275.852 688.992 275.91 688.548 275.91C688.104 275.91 687.716 275.866 687.384 275.778C687.052 275.69 686.776 275.572 686.556 275.424C686.336 275.276 686.17 275.104 686.058 274.908C685.95 274.716 685.896 274.514 685.896 274.302C685.896 274.002 685.99 273.748 686.178 273.54C686.366 273.332 686.624 273.166 686.952 273.042C686.772 272.962 686.628 272.856 686.52 272.724C686.416 272.588 686.364 272.406 686.364 272.178C686.364 272.09 686.38 272 686.412 271.908C686.444 271.812 686.492 271.718 686.556 271.626C686.624 271.53 686.706 271.44 686.802 271.356C686.898 271.272 687.01 271.198 687.138 271.134C686.838 270.966 686.604 270.744 686.436 270.468C686.268 270.188 686.184 269.864 686.184 269.496C686.184 269.2 686.24 268.932 686.352 268.692C686.468 268.448 686.628 268.242 686.832 268.074C687.036 267.902 687.278 267.77 687.558 267.678C687.842 267.586 688.152 267.54 688.488 267.54C688.752 267.54 688.998 267.57 689.226 267.63C689.454 267.686 689.662 267.77 689.85 267.882H691.5Z" fill="white"/>
<path d="M1170.15 236.372H1154.58L1152.01 243.82H1143.78L1157.83 204.676H1166.96L1181.02 243.82H1172.73L1170.15 236.372ZM1168.02 230.1L1162.37 213.748L1156.71 230.1H1168.02ZM1210.24 236.372H1194.67L1192.09 243.82H1183.86L1197.92 204.676H1207.05L1221.1 243.82H1212.81L1210.24 236.372ZM1208.11 230.1L1202.45 213.748L1196.8 230.1H1208.11Z" fill="white"/>
<path d="M984.862 272.772L984.856 273.72H979.558V265.122H984.856V266.07H980.722V268.926H984.07V269.838H980.722V272.772H984.862ZM987.082 268.86C987.274 268.444 987.51 268.12 987.79 267.888C988.07 267.652 988.412 267.534 988.816 267.534C988.944 267.534 989.066 267.548 989.182 267.576C989.302 267.604 989.408 267.648 989.5 267.708L989.422 268.506C989.398 268.606 989.338 268.656 989.242 268.656C989.186 268.656 989.104 268.644 988.996 268.62C988.888 268.596 988.766 268.584 988.63 268.584C988.438 268.584 988.266 268.612 988.114 268.668C987.966 268.724 987.832 268.808 987.712 268.92C987.596 269.028 987.49 269.164 987.394 269.328C987.302 269.488 987.218 269.672 987.142 269.88V273.72H986.068V267.642H986.68C986.796 267.642 986.876 267.664 986.92 267.708C986.964 267.752 986.994 267.828 987.01 267.936L987.082 268.86ZM991.453 268.86C991.645 268.444 991.881 268.12 992.161 267.888C992.441 267.652 992.783 267.534 993.187 267.534C993.315 267.534 993.437 267.548 993.553 267.576C993.673 267.604 993.779 267.648 993.871 267.708L993.793 268.506C993.769 268.606 993.709 268.656 993.613 268.656C993.557 268.656 993.475 268.644 993.367 268.62C993.259 268.596 993.137 268.584 993.001 268.584C992.809 268.584 992.637 268.612 992.485 268.668C992.337 268.724 992.203 268.808 992.083 268.92C991.967 269.028 991.861 269.164 991.765 269.328C991.673 269.488 991.589 269.672 991.513 269.88V273.72H990.439V267.642H991.051C991.167 267.642 991.247 267.664 991.291 267.708C991.335 267.752 991.365 267.828 991.381 267.936L991.453 268.86ZM997.126 267.546C997.57 267.546 997.97 267.62 998.326 267.768C998.682 267.916 998.986 268.126 999.238 268.398C999.49 268.67 999.682 269 999.814 269.388C999.95 269.772 1000.02 270.202 1000.02 270.678C1000.02 271.158 999.95 271.59 999.814 271.974C999.682 272.358 999.49 272.686 999.238 272.958C998.986 273.23 998.682 273.44 998.326 273.588C997.97 273.732 997.57 273.804 997.126 273.804C996.678 273.804 996.274 273.732 995.914 273.588C995.558 273.44 995.254 273.23 995.002 272.958C994.75 272.686 994.556 272.358 994.42 271.974C994.288 271.59 994.222 271.158 994.222 270.678C994.222 270.202 994.288 269.772 994.42 269.388C994.556 269 994.75 268.67 995.002 268.398C995.254 268.126 995.558 267.916 995.914 267.768C996.274 267.62 996.678 267.546 997.126 267.546ZM997.126 272.97C997.726 272.97 998.174 272.77 998.47 272.37C998.766 271.966 998.914 271.404 998.914 270.684C998.914 269.96 998.766 269.396 998.47 268.992C998.174 268.588 997.726 268.386 997.126 268.386C996.822 268.386 996.556 268.438 996.328 268.542C996.104 268.646 995.916 268.796 995.764 268.992C995.616 269.188 995.504 269.43 995.428 269.718C995.356 270.002 995.32 270.324 995.32 270.684C995.32 271.404 995.468 271.966 995.764 272.37C996.064 272.77 996.518 272.97 997.126 272.97ZM1002.39 268.86C1002.58 268.444 1002.81 268.12 1003.09 267.888C1003.37 267.652 1003.72 267.534 1004.12 267.534C1004.25 267.534 1004.37 267.548 1004.49 267.576C1004.61 267.604 1004.71 267.648 1004.8 267.708L1004.73 268.506C1004.7 268.606 1004.64 268.656 1004.55 268.656C1004.49 268.656 1004.41 268.644 1004.3 268.62C1004.19 268.596 1004.07 268.584 1003.93 268.584C1003.74 268.584 1003.57 268.612 1003.42 268.668C1003.27 268.724 1003.14 268.808 1003.02 268.92C1002.9 269.028 1002.79 269.164 1002.7 269.328C1002.61 269.488 1002.52 269.672 1002.45 269.88V273.72H1001.37V267.642H1001.98C1002.1 267.642 1002.18 267.664 1002.22 267.708C1002.27 267.752 1002.3 267.828 1002.31 267.936L1002.39 268.86Z" fill="white"/>
<path d="M1215.62 324.98H12.84C5.74866 324.98 0 330.729 0 337.82V412.14C0 419.231 5.74866 424.98 12.84 424.98H1215.62C1222.71 424.98 1228.46 419.231 1228.46 412.14V337.82C1228.46 330.729 1222.71 324.98 1215.62 324.98Z" fill="#FFA500"/>
<path d="M982.03 324.98H1215.9C1222.84 324.98 1228.47 330.61 1228.47 337.55V412.42C1228.47 419.36 1222.84 424.99 1215.9 424.99H982.03V324.99V324.98Z" fill="#CC9844"/>
<path d="M1215.62 499.96H12.84C5.74866 499.96 0 505.709 0 512.8V587.12C0 594.211 5.74866 599.96 12.84 599.96H1215.62C1222.71 599.96 1228.46 594.211 1228.46 587.12V512.8C1228.46 505.709 1222.71 499.96 1215.62 499.96Z" fill="#6FCE72"/>
<path d="M982.03 499.96H1215.9C1222.84 499.96 1228.47 505.59 1228.47 512.53V587.4C1228.47 594.34 1222.84 599.97 1215.9 599.97H982.03V499.97V499.96Z" fill="#39AC7E"/>
<path d="M1215.62 674.93H12.84C5.74866 674.93 0 680.679 0 687.77V762.09C0 769.181 5.74866 774.93 12.84 774.93H1215.62C1222.71 774.93 1228.46 769.181 1228.46 762.09V687.77C1228.46 680.679 1222.71 674.93 1215.62 674.93Z" fill="#FF652D"/>
<path d="M982.03 674.93H1215.9C1222.84 674.93 1228.47 680.56 1228.47 687.5V762.37C1228.47 769.31 1222.84 774.94 1215.9 774.94H982.03V674.94V674.93Z" fill="#D05122"/>
<path d="M1215.62 849.91H12.84C5.74866 849.91 0 855.659 0 862.75V937.07C0 944.161 5.74866 949.91 12.84 949.91H1215.62C1222.71 949.91 1228.46 944.161 1228.46 937.07V862.75C1228.46 855.659 1222.71 849.91 1215.62 849.91Z" fill="#E70303"/>
<path d="M982.03 849.91H1215.9C1222.84 849.91 1228.47 855.54 1228.47 862.48V937.35C1228.47 944.29 1222.84 949.92 1215.9 949.92H982.03V849.92V849.91Z" fill="#841A1A"/>
<path d="M1076.75 576.66C1075.52 575.43 1075.52 573.44 1076.75 572.21L1096.78 552.18C1098.01 550.95 1098.01 548.96 1096.78 547.73L1076.75 527.7C1075.52 526.47 1075.52 524.48 1076.75 523.25C1077.98 522.02 1079.97 522.02 1081.2 523.25L1101.23 543.28C1102.46 544.51 1104.45 544.51 1105.68 543.28L1125.71 523.25C1126.94 522.02 1128.93 522.02 1130.16 523.25C1131.39 524.48 1131.39 526.47 1130.16 527.7L1110.13 547.73C1108.9 548.96 1108.9 550.95 1110.13 552.18L1130.16 572.21C1131.39 573.44 1131.39 575.43 1130.16 576.66C1128.93 577.89 1126.94 577.89 1125.71 576.66L1105.68 556.63C1104.45 555.4 1102.46 555.4 1101.23 556.63L1081.2 576.66C1079.97 577.89 1077.98 577.89 1076.75 576.66Z" fill="white"/>
<path d="M1076.75 401.69C1075.52 400.46 1075.52 398.47 1076.75 397.24L1096.78 377.21C1098.01 375.98 1098.01 373.99 1096.78 372.76L1076.75 352.73C1075.52 351.5 1075.52 349.51 1076.75 348.28C1077.98 347.05 1079.97 347.05 1081.2 348.28L1101.23 368.31C1102.46 369.54 1104.45 369.54 1105.68 368.31L1125.71 348.28C1126.94 347.05 1128.93 347.05 1130.16 348.28C1131.39 349.51 1131.39 351.5 1130.16 352.73L1110.13 372.76C1108.9 373.99 1108.9 375.98 1110.13 377.21L1130.16 397.24C1131.39 398.47 1131.39 400.46 1130.16 401.69C1128.93 402.92 1126.94 402.92 1125.71 401.69L1105.68 381.66C1104.45 380.43 1102.46 380.43 1101.23 381.66L1081.2 401.69C1079.97 402.92 1077.98 402.92 1076.75 401.69Z" fill="white"/>
<path d="M1076.75 751.64C1075.52 750.41 1075.52 748.42 1076.75 747.19L1096.78 727.16C1098.01 725.93 1098.01 723.94 1096.78 722.71L1076.75 702.68C1075.52 701.45 1075.52 699.46 1076.75 698.23C1077.98 697 1079.97 697 1081.2 698.23L1101.23 718.26C1102.46 719.49 1104.45 719.49 1105.68 718.26L1125.71 698.23C1126.94 697 1128.93 697 1130.16 698.23C1131.39 699.46 1131.39 701.45 1130.16 702.68L1110.13 722.71C1108.9 723.94 1108.9 725.93 1110.13 727.16L1130.16 747.19C1131.39 748.42 1131.39 750.41 1130.16 751.64C1128.93 752.87 1126.94 752.87 1125.71 751.64L1105.68 731.61C1104.45 730.38 1102.46 730.38 1101.23 731.61L1081.2 751.64C1079.97 752.87 1077.98 752.87 1076.75 751.64Z" fill="white"/>
<path d="M1076.75 926.62C1075.52 925.39 1075.52 923.4 1076.75 922.17L1096.78 902.14C1098.01 900.91 1098.01 898.92 1096.78 897.69L1076.75 877.66C1075.52 876.43 1075.52 874.44 1076.75 873.21C1077.98 871.98 1079.97 871.98 1081.2 873.21L1101.23 893.24C1102.46 894.47 1104.45 894.47 1105.68 893.24L1125.71 873.21C1126.94 871.98 1128.93 871.98 1130.16 873.21C1131.39 874.44 1131.39 876.43 1130.16 877.66L1110.13 897.69C1108.9 898.92 1108.9 900.91 1110.13 902.14L1130.16 922.17C1131.39 923.4 1131.39 925.39 1130.16 926.62C1128.93 927.85 1126.94 927.85 1125.71 926.62L1105.68 906.59C1104.45 905.36 1102.46 905.36 1101.23 906.59L1081.2 926.62C1079.97 927.85 1077.98 927.85 1076.75 926.62Z" fill="white"/>
<path d="M413.36 390.81C413.36 387.514 414.096 384.57 415.568 381.978C417.072 379.354 419.104 377.322 421.664 375.882C424.256 374.41 427.152 373.674 430.352 373.674C434.096 373.674 437.376 374.634 440.192 376.554C443.008 378.474 444.976 381.13 446.096 384.522H438.368C437.6 382.922 436.512 381.722 435.104 380.922C433.728 380.122 432.128 379.722 430.304 379.722C428.352 379.722 426.608 380.186 425.072 381.114C423.568 382.01 422.384 383.29 421.52 384.954C420.688 386.618 420.272 388.57 420.272 390.81C420.272 393.018 420.688 394.97 421.52 396.666C422.384 398.33 423.568 399.626 425.072 400.554C426.608 401.45 428.352 401.898 430.304 401.898C432.128 401.898 433.728 401.498 435.104 400.698C436.512 399.866 437.6 398.65 438.368 397.05H446.096C444.976 400.474 443.008 403.146 440.192 405.066C437.408 406.954 434.128 407.898 430.352 407.898C427.152 407.898 424.256 407.178 421.664 405.738C419.104 404.266 417.072 402.234 415.568 399.642C414.096 397.05 413.36 394.106 413.36 390.81ZM458.556 372.09V407.61H451.836V372.09H458.556ZM468.603 377.85C467.419 377.85 466.427 377.482 465.627 376.746C464.859 375.978 464.475 375.034 464.475 373.914C464.475 372.794 464.859 371.866 465.627 371.13C466.427 370.362 467.419 369.978 468.603 369.978C469.787 369.978 470.763 370.362 471.531 371.13C472.331 371.866 472.731 372.794 472.731 373.914C472.731 375.034 472.331 375.978 471.531 376.746C470.763 377.482 469.787 377.85 468.603 377.85ZM471.915 381.018V407.61H465.195V381.018H471.915ZM476.826 394.314C476.826 391.562 477.386 389.162 478.506 387.114C479.626 385.034 481.178 383.434 483.162 382.314C485.146 381.162 487.418 380.586 489.978 380.586C493.274 380.586 495.994 381.418 498.138 383.082C500.314 384.714 501.77 387.018 502.506 389.994H495.258C494.874 388.842 494.218 387.946 493.29 387.306C492.394 386.634 491.274 386.298 489.93 386.298C488.01 386.298 486.49 387.002 485.37 388.41C484.25 389.786 483.69 391.754 483.69 394.314C483.69 396.842 484.25 398.81 485.37 400.218C486.49 401.594 488.01 402.282 489.93 402.282C492.65 402.282 494.426 401.066 495.258 398.634H502.506C501.77 401.514 500.314 403.802 498.138 405.498C495.962 407.194 493.242 408.042 489.978 408.042C487.418 408.042 485.146 407.482 483.162 406.362C481.178 405.21 479.626 403.61 478.506 401.562C477.386 399.482 476.826 397.066 476.826 394.314ZM523.173 407.61L514.149 396.282V407.61H507.429V372.09H514.149V392.298L523.077 381.018H531.813L520.101 394.362L531.909 407.61H523.173ZM569.698 374.106V379.53H560.77V407.61H554.05V379.53H545.122V374.106H569.698ZM589.577 380.634C591.593 380.634 593.385 381.082 594.953 381.978C596.521 382.842 597.737 384.138 598.601 385.866C599.497 387.562 599.945 389.61 599.945 392.01V407.61H593.225V392.922C593.225 390.81 592.697 389.194 591.641 388.074C590.585 386.922 589.145 386.346 587.321 386.346C585.465 386.346 583.993 386.922 582.905 388.074C581.849 389.194 581.321 390.81 581.321 392.922V407.61H574.601V372.09H581.321V384.33C582.185 383.178 583.337 382.282 584.777 381.642C586.217 380.97 587.817 380.634 589.577 380.634ZM609.744 377.85C608.56 377.85 607.568 377.482 606.768 376.746C606 375.978 605.616 375.034 605.616 373.914C605.616 372.794 606 371.866 606.768 371.13C607.568 370.362 608.56 369.978 609.744 369.978C610.928 369.978 611.904 370.362 612.672 371.13C613.472 371.866 613.872 372.794 613.872 373.914C613.872 375.034 613.472 375.978 612.672 376.746C611.904 377.482 610.928 377.85 609.744 377.85ZM613.056 381.018V407.61H606.336V381.018H613.056ZM629.871 408.042C627.695 408.042 625.743 407.658 624.015 406.89C622.287 406.09 620.911 405.018 619.887 403.674C618.895 402.33 618.351 400.842 618.255 399.21H625.023C625.151 400.234 625.647 401.082 626.511 401.754C627.407 402.426 628.511 402.762 629.823 402.762C631.103 402.762 632.095 402.506 632.799 401.994C633.535 401.482 633.903 400.826 633.903 400.026C633.903 399.162 633.455 398.522 632.559 398.106C631.695 397.658 630.303 397.178 628.383 396.666C626.399 396.186 624.767 395.69 623.487 395.178C622.239 394.666 621.151 393.882 620.223 392.826C619.327 391.77 618.879 390.346 618.879 388.554C618.879 387.082 619.295 385.738 620.127 384.522C620.991 383.306 622.207 382.346 623.775 381.642C625.375 380.938 627.247 380.586 629.391 380.586C632.559 380.586 635.087 381.386 636.975 382.986C638.863 384.554 639.903 386.682 640.095 389.37H633.663C633.567 388.314 633.119 387.482 632.319 386.874C631.551 386.234 630.511 385.914 629.199 385.914C627.983 385.914 627.039 386.138 626.367 386.586C625.727 387.034 625.407 387.658 625.407 388.458C625.407 389.354 625.855 390.042 626.751 390.522C627.647 390.97 629.039 391.434 630.927 391.914C632.847 392.394 634.431 392.89 635.679 393.402C636.927 393.914 637.999 394.714 638.895 395.802C639.823 396.858 640.303 398.266 640.335 400.026C640.335 401.562 639.903 402.938 639.039 404.154C638.207 405.37 636.991 406.33 635.391 407.034C633.823 407.706 631.983 408.042 629.871 408.042ZM665.977 373.53L665.209 396.714H659.545L658.729 373.53H665.977ZM662.521 407.946C661.305 407.946 660.297 407.578 659.497 406.842C658.729 406.074 658.345 405.13 658.345 404.01C658.345 402.89 658.729 401.962 659.497 401.226C660.297 400.458 661.305 400.074 662.521 400.074C663.705 400.074 664.681 400.458 665.449 401.226C666.217 401.962 666.601 402.89 666.601 404.01C666.601 405.13 666.217 406.074 665.449 406.842C664.681 407.578 663.705 407.946 662.521 407.946Z" fill="white"/>
<path d="M395.512 549.516L384.184 571.356V583.02H377.464V571.356L366.088 549.516H373.672L380.872 564.828L388.024 549.516H395.512ZM411.196 583.452C408.636 583.452 406.332 582.892 404.284 581.772C402.236 580.62 400.62 579.004 399.436 576.924C398.284 574.844 397.708 572.444 397.708 569.724C397.708 567.004 398.3 564.604 399.484 562.524C400.7 560.444 402.348 558.844 404.428 557.724C406.508 556.572 408.828 555.996 411.388 555.996C413.948 555.996 416.268 556.572 418.348 557.724C420.428 558.844 422.06 560.444 423.244 562.524C424.46 564.604 425.068 567.004 425.068 569.724C425.068 572.444 424.444 574.844 423.196 576.924C421.98 579.004 420.316 580.62 418.204 581.772C416.124 582.892 413.788 583.452 411.196 583.452ZM411.196 577.596C412.412 577.596 413.548 577.308 414.604 576.732C415.692 576.124 416.556 575.228 417.196 574.044C417.836 572.86 418.156 571.42 418.156 569.724C418.156 567.196 417.484 565.26 416.14 563.916C414.828 562.54 413.212 561.852 411.292 561.852C409.372 561.852 407.756 562.54 406.444 563.916C405.164 565.26 404.524 567.196 404.524 569.724C404.524 572.252 405.148 574.204 406.396 575.58C407.676 576.924 409.276 577.596 411.196 577.596ZM455.101 556.428V583.02H448.333V579.66C447.469 580.812 446.333 581.724 444.925 582.396C443.549 583.036 442.045 583.356 440.413 583.356C438.333 583.356 436.493 582.924 434.893 582.06C433.293 581.164 432.029 579.868 431.101 578.172C430.205 576.444 429.757 574.396 429.757 572.028V556.428H436.477V571.068C436.477 573.18 437.005 574.812 438.061 575.964C439.117 577.084 440.557 577.644 442.381 577.644C444.237 577.644 445.693 577.084 446.749 575.964C447.805 574.812 448.333 573.18 448.333 571.068V556.428H455.101ZM471.441 569.724C471.441 566.972 472.001 564.572 473.121 562.524C474.241 560.444 475.793 558.844 477.777 557.724C479.761 556.572 482.033 555.996 484.593 555.996C487.889 555.996 490.609 556.828 492.753 558.492C494.929 560.124 496.385 562.428 497.121 565.404H489.873C489.489 564.252 488.833 563.356 487.905 562.716C487.009 562.044 485.889 561.708 484.545 561.708C482.625 561.708 481.105 562.412 479.985 563.82C478.865 565.196 478.305 567.164 478.305 569.724C478.305 572.252 478.865 574.22 479.985 575.628C481.105 577.004 482.625 577.692 484.545 577.692C487.265 577.692 489.041 576.476 489.873 574.044H497.121C496.385 576.924 494.929 579.212 492.753 580.908C490.577 582.604 487.857 583.452 484.593 583.452C482.033 583.452 479.761 582.892 477.777 581.772C475.793 580.62 474.241 579.02 473.121 576.972C472.001 574.892 471.441 572.476 471.441 569.724ZM508.764 547.5V583.02H502.044V547.5H508.764ZM518.811 553.26C517.627 553.26 516.635 552.892 515.835 552.156C515.067 551.388 514.683 550.444 514.683 549.324C514.683 548.204 515.067 547.276 515.835 546.54C516.635 545.772 517.627 545.388 518.811 545.388C519.995 545.388 520.971 545.772 521.739 546.54C522.539 547.276 522.939 548.204 522.939 549.324C522.939 550.444 522.539 551.388 521.739 552.156C520.971 552.892 519.995 553.26 518.811 553.26ZM522.123 556.428V583.02H515.403V556.428H522.123ZM527.035 569.724C527.035 566.972 527.595 564.572 528.715 562.524C529.835 560.444 531.387 558.844 533.371 557.724C535.355 556.572 537.627 555.996 540.187 555.996C543.483 555.996 546.203 556.828 548.347 558.492C550.523 560.124 551.979 562.428 552.715 565.404H545.467C545.083 564.252 544.427 563.356 543.499 562.716C542.603 562.044 541.483 561.708 540.139 561.708C538.219 561.708 536.699 562.412 535.579 563.82C534.459 565.196 533.899 567.164 533.899 569.724C533.899 572.252 534.459 574.22 535.579 575.628C536.699 577.004 538.219 577.692 540.139 577.692C542.859 577.692 544.635 576.476 545.467 574.044H552.715C551.979 576.924 550.523 579.212 548.347 580.908C546.171 582.604 543.451 583.452 540.187 583.452C537.627 583.452 535.355 582.892 533.371 581.772C531.387 580.62 529.835 579.02 528.715 576.972C527.595 574.892 527.035 572.476 527.035 569.724ZM573.382 583.02L564.358 571.692V583.02H557.638V547.5H564.358V567.708L573.286 556.428H582.022L570.31 569.772L582.118 583.02H573.382ZM610.389 569.148C610.389 570.108 610.325 570.972 610.197 571.74H590.757C590.917 573.66 591.589 575.164 592.773 576.252C593.957 577.34 595.413 577.884 597.141 577.884C599.637 577.884 601.413 576.812 602.469 574.668H609.717C608.949 577.228 607.477 579.34 605.301 581.004C603.125 582.636 600.453 583.452 597.285 583.452C594.725 583.452 592.421 582.892 590.373 581.772C588.357 580.62 586.773 579.004 585.621 576.924C584.501 574.844 583.941 572.444 583.941 569.724C583.941 566.972 584.501 564.556 585.621 562.476C586.741 560.396 588.309 558.796 590.325 557.676C592.341 556.556 594.661 555.996 597.285 555.996C599.813 555.996 602.069 556.54 604.053 557.628C606.069 558.716 607.621 560.268 608.709 562.284C609.829 564.268 610.389 566.556 610.389 569.148ZM603.429 567.228C603.397 565.5 602.773 564.124 601.557 563.1C600.341 562.044 598.853 561.516 597.093 561.516C595.429 561.516 594.021 562.028 592.869 563.052C591.749 564.044 591.061 565.436 590.805 567.228H603.429ZM613.566 569.628C613.566 566.94 614.094 564.556 615.15 562.476C616.238 560.396 617.71 558.796 619.566 557.676C621.422 556.556 623.486 555.996 625.758 555.996C627.486 555.996 629.134 556.38 630.702 557.148C632.27 557.884 633.518 558.876 634.446 560.124V547.5H641.262V583.02H634.446V579.084C633.614 580.396 632.446 581.452 630.942 582.252C629.438 583.052 627.694 583.452 625.71 583.452C623.47 583.452 621.422 582.876 619.566 581.724C617.71 580.572 616.238 578.956 615.15 576.876C614.094 574.764 613.566 572.348 613.566 569.628ZM634.494 569.724C634.494 568.092 634.174 566.7 633.534 565.548C632.894 564.364 632.03 563.468 630.942 562.86C629.854 562.22 628.686 561.9 627.438 561.9C626.19 561.9 625.038 562.204 623.982 562.812C622.926 563.42 622.062 564.316 621.39 565.5C620.75 566.652 620.43 568.028 620.43 569.628C620.43 571.228 620.75 572.636 621.39 573.852C622.062 575.036 622.926 575.948 623.982 576.588C625.07 577.228 626.222 577.548 627.438 577.548C628.686 577.548 629.854 577.244 630.942 576.636C632.03 575.996 632.894 575.1 633.534 573.948C634.174 572.764 634.494 571.356 634.494 569.724ZM667.087 561.948V574.812C667.087 575.708 667.295 576.364 667.711 576.78C668.159 577.164 668.895 577.356 669.919 577.356H673.039V583.02H668.815C663.151 583.02 660.319 580.268 660.319 574.764V561.948H657.151V556.428H660.319V549.852H667.087V556.428H673.039V561.948H667.087ZM692.848 556.044C694.864 556.044 696.656 556.492 698.224 557.388C699.792 558.252 701.008 559.548 701.872 561.276C702.768 562.972 703.216 565.02 703.216 567.42V583.02H696.496V568.332C696.496 566.22 695.968 564.604 694.912 563.484C693.856 562.332 692.416 561.756 690.592 561.756C688.736 561.756 687.264 562.332 686.176 563.484C685.12 564.604 684.592 566.22 684.592 568.332V583.02H677.872V547.5H684.592V559.74C685.456 558.588 686.608 557.692 688.048 557.052C689.488 556.38 691.088 556.044 692.848 556.044ZM713.014 553.26C711.83 553.26 710.838 552.892 710.038 552.156C709.27 551.388 708.886 550.444 708.886 549.324C708.886 548.204 709.27 547.276 710.038 546.54C710.838 545.772 711.83 545.388 713.014 545.388C714.198 545.388 715.174 545.772 715.942 546.54C716.742 547.276 717.142 548.204 717.142 549.324C717.142 550.444 716.742 551.388 715.942 552.156C715.174 552.892 714.198 553.26 713.014 553.26ZM716.326 556.428V583.02H709.606V556.428H716.326ZM733.142 583.452C730.966 583.452 729.014 583.068 727.286 582.3C725.558 581.5 724.182 580.428 723.158 579.084C722.166 577.74 721.622 576.252 721.526 574.62H728.294C728.422 575.644 728.918 576.492 729.782 577.164C730.678 577.836 731.782 578.172 733.094 578.172C734.374 578.172 735.366 577.916 736.07 577.404C736.806 576.892 737.174 576.236 737.174 575.436C737.174 574.572 736.726 573.932 735.83 573.516C734.966 573.068 733.574 572.588 731.654 572.076C729.67 571.596 728.038 571.1 726.758 570.588C725.51 570.076 724.422 569.292 723.494 568.236C722.598 567.18 722.15 565.756 722.15 563.964C722.15 562.492 722.566 561.148 723.398 559.932C724.262 558.716 725.478 557.756 727.046 557.052C728.646 556.348 730.518 555.996 732.662 555.996C735.83 555.996 738.358 556.796 740.246 558.396C742.134 559.964 743.174 562.092 743.366 564.78H736.934C736.838 563.724 736.39 562.892 735.59 562.284C734.822 561.644 733.782 561.324 732.47 561.324C731.254 561.324 730.31 561.548 729.638 561.996C728.998 562.444 728.678 563.068 728.678 563.868C728.678 564.764 729.126 565.452 730.022 565.932C730.918 566.38 732.31 566.844 734.198 567.324C736.118 567.804 737.702 568.3 738.95 568.812C740.198 569.324 741.27 570.124 742.166 571.212C743.094 572.268 743.574 573.676 743.606 575.436C743.606 576.972 743.174 578.348 742.31 579.564C741.478 580.78 740.262 581.74 738.662 582.444C737.094 583.116 735.254 583.452 733.142 583.452Z" fill="white"/>
<path d="M482.776 724.056L473.416 757.56H465.496L459.208 733.704L452.632 757.56L444.76 757.608L435.736 724.056H442.936L448.84 750.072L455.656 724.056H463.144L469.576 749.928L475.528 724.056H482.776ZM485.436 744.168C485.436 741.48 485.964 739.096 487.02 737.016C488.108 734.936 489.564 733.336 491.388 732.216C493.244 731.096 495.308 730.536 497.58 730.536C499.564 730.536 501.292 730.936 502.764 731.736C504.268 732.536 505.468 733.544 506.364 734.76V730.968H513.132V757.56H506.364V753.672C505.5 754.92 504.3 755.96 502.764 756.792C501.26 757.592 499.516 757.992 497.532 757.992C495.292 757.992 493.244 757.416 491.388 756.264C489.564 755.112 488.108 753.496 487.02 751.416C485.964 749.304 485.436 746.888 485.436 744.168ZM506.364 744.264C506.364 742.632 506.044 741.24 505.404 740.088C504.764 738.904 503.9 738.008 502.812 737.4C501.724 736.76 500.556 736.44 499.308 736.44C498.06 736.44 496.908 736.744 495.852 737.352C494.796 737.96 493.932 738.856 493.26 740.04C492.62 741.192 492.3 742.568 492.3 744.168C492.3 745.768 492.62 747.176 493.26 748.392C493.932 749.576 494.796 750.488 495.852 751.128C496.94 751.768 498.092 752.088 499.308 752.088C500.556 752.088 501.724 751.784 502.812 751.176C503.9 750.536 504.764 749.64 505.404 748.488C506.044 747.304 506.364 745.896 506.364 744.264ZM526.415 735.096C527.279 733.688 528.399 732.584 529.775 731.784C531.183 730.984 532.783 730.584 534.575 730.584V737.64H532.799C530.687 737.64 529.087 738.136 527.999 739.128C526.943 740.12 526.415 741.848 526.415 744.312V757.56H519.695V730.968H526.415V735.096ZM553.837 730.584C557.005 730.584 559.565 731.592 561.517 733.608C563.469 735.592 564.445 738.376 564.445 741.96V757.56H557.725V742.872C557.725 740.76 557.197 739.144 556.141 738.024C555.085 736.872 553.645 736.296 551.821 736.296C549.965 736.296 548.493 736.872 547.405 738.024C546.349 739.144 545.821 740.76 545.821 742.872V757.56H539.101V730.968H545.821V734.28C546.717 733.128 547.853 732.232 549.229 731.592C550.637 730.92 552.173 730.584 553.837 730.584ZM574.244 727.8C573.06 727.8 572.068 727.432 571.268 726.696C570.5 725.928 570.116 724.984 570.116 723.864C570.116 722.744 570.5 721.816 571.268 721.08C572.068 720.312 573.06 719.928 574.244 719.928C575.428 719.928 576.404 720.312 577.172 721.08C577.972 721.816 578.372 722.744 578.372 723.864C578.372 724.984 577.972 725.928 577.172 726.696C576.404 727.432 575.428 727.8 574.244 727.8ZM577.556 730.968V757.56H570.836V730.968H577.556ZM598.931 730.584C602.099 730.584 604.659 731.592 606.611 733.608C608.563 735.592 609.539 738.376 609.539 741.96V757.56H602.819V742.872C602.819 740.76 602.291 739.144 601.235 738.024C600.179 736.872 598.739 736.296 596.915 736.296C595.059 736.296 593.587 736.872 592.499 738.024C591.443 739.144 590.915 740.76 590.915 742.872V757.56H584.195V730.968H590.915V734.28C591.811 733.128 592.947 732.232 594.323 731.592C595.731 730.92 597.267 730.584 598.931 730.584ZM626.345 730.536C628.329 730.536 630.073 730.936 631.577 731.736C633.081 732.504 634.265 733.512 635.129 734.76V730.968H641.897V757.752C641.897 760.216 641.401 762.408 640.409 764.328C639.417 766.28 637.929 767.816 635.945 768.936C633.961 770.088 631.561 770.664 628.745 770.664C624.969 770.664 621.865 769.784 619.433 768.024C617.033 766.264 615.673 763.864 615.353 760.824H622.025C622.377 762.04 623.129 763 624.281 763.704C625.465 764.44 626.889 764.808 628.553 764.808C630.505 764.808 632.089 764.216 633.305 763.032C634.521 761.88 635.129 760.12 635.129 757.752V753.624C634.265 754.872 633.065 755.912 631.529 756.744C630.025 757.576 628.297 757.992 626.345 757.992C624.105 757.992 622.057 757.416 620.201 756.264C618.345 755.112 616.873 753.496 615.785 751.416C614.729 749.304 614.201 746.888 614.201 744.168C614.201 741.48 614.729 739.096 615.785 737.016C616.873 734.936 618.329 733.336 620.153 732.216C622.009 731.096 624.073 730.536 626.345 730.536ZM635.129 744.264C635.129 742.632 634.809 741.24 634.169 740.088C633.529 738.904 632.665 738.008 631.577 737.4C630.489 736.76 629.321 736.44 628.073 736.44C626.825 736.44 625.673 736.744 624.617 737.352C623.561 737.96 622.697 738.856 622.025 740.04C621.385 741.192 621.065 742.568 621.065 744.168C621.065 745.768 621.385 747.176 622.025 748.392C622.697 749.576 623.561 750.488 624.617 751.128C625.705 751.768 626.857 752.088 628.073 752.088C629.321 752.088 630.489 751.784 631.577 751.176C632.665 750.536 633.529 749.64 634.169 748.488C634.809 747.304 635.129 745.896 635.129 744.264Z" fill="white"/>
<path d="M279.952 899.036L268.624 920.876V932.54H261.904V920.876L250.528 899.036H258.112L265.312 914.348L272.464 899.036H279.952ZM295.636 932.972C293.076 932.972 290.772 932.412 288.724 931.292C286.676 930.14 285.06 928.524 283.876 926.444C282.724 924.364 282.148 921.964 282.148 919.244C282.148 916.524 282.74 914.124 283.924 912.044C285.14 909.964 286.788 908.364 288.868 907.244C290.948 906.092 293.268 905.516 295.828 905.516C298.388 905.516 300.708 906.092 302.788 907.244C304.868 908.364 306.5 909.964 307.684 912.044C308.9 914.124 309.508 916.524 309.508 919.244C309.508 921.964 308.884 924.364 307.636 926.444C306.42 928.524 304.756 930.14 302.644 931.292C300.564 932.412 298.228 932.972 295.636 932.972ZM295.636 927.116C296.852 927.116 297.988 926.828 299.044 926.252C300.132 925.644 300.996 924.748 301.636 923.564C302.276 922.38 302.596 920.94 302.596 919.244C302.596 916.716 301.924 914.78 300.58 913.436C299.268 912.06 297.652 911.372 295.732 911.372C293.812 911.372 292.196 912.06 290.884 913.436C289.604 914.78 288.964 916.716 288.964 919.244C288.964 921.772 289.588 923.724 290.836 925.1C292.116 926.444 293.716 927.116 295.636 927.116ZM339.541 905.948V932.54H332.773V929.18C331.909 930.332 330.773 931.244 329.365 931.916C327.989 932.556 326.485 932.876 324.853 932.876C322.773 932.876 320.933 932.444 319.333 931.58C317.733 930.684 316.469 929.388 315.541 927.692C314.645 925.964 314.197 923.916 314.197 921.548V905.948H320.917V920.588C320.917 922.7 321.445 924.332 322.501 925.484C323.557 926.604 324.997 927.164 326.821 927.164C328.677 927.164 330.133 926.604 331.189 925.484C332.245 924.332 332.773 922.7 332.773 920.588V905.948H339.541ZM355.881 919.148C355.881 916.46 356.409 914.076 357.465 911.996C358.553 909.916 360.025 908.316 361.881 907.196C363.737 906.076 365.801 905.516 368.073 905.516C369.801 905.516 371.449 905.9 373.017 906.668C374.585 907.404 375.833 908.396 376.761 909.644V897.02H383.577V932.54H376.761V928.604C375.929 929.916 374.761 930.972 373.257 931.772C371.753 932.572 370.009 932.972 368.025 932.972C365.785 932.972 363.737 932.396 361.881 931.244C360.025 930.092 358.553 928.476 357.465 926.396C356.409 924.284 355.881 921.868 355.881 919.148ZM376.809 919.244C376.809 917.612 376.489 916.22 375.849 915.068C375.209 913.884 374.345 912.988 373.257 912.38C372.169 911.74 371.001 911.42 369.753 911.42C368.505 911.42 367.353 911.724 366.297 912.332C365.241 912.94 364.377 913.836 363.705 915.02C363.065 916.172 362.745 917.548 362.745 919.148C362.745 920.748 363.065 922.156 363.705 923.372C364.377 924.556 365.241 925.468 366.297 926.108C367.385 926.748 368.537 927.068 369.753 927.068C371.001 927.068 372.169 926.764 373.257 926.156C374.345 925.516 375.209 924.62 375.849 923.468C376.489 922.284 376.809 920.876 376.809 919.244ZM414.86 918.668C414.86 919.628 414.796 920.492 414.668 921.26H395.228C395.388 923.18 396.06 924.684 397.244 925.772C398.428 926.86 399.884 927.404 401.612 927.404C404.108 927.404 405.884 926.332 406.94 924.188H414.188C413.42 926.748 411.948 928.86 409.772 930.524C407.596 932.156 404.924 932.972 401.756 932.972C399.196 932.972 396.892 932.412 394.844 931.292C392.828 930.14 391.244 928.524 390.092 926.444C388.972 924.364 388.412 921.964 388.412 919.244C388.412 916.492 388.972 914.076 390.092 911.996C391.212 909.916 392.78 908.316 394.796 907.196C396.812 906.076 399.132 905.516 401.756 905.516C404.284 905.516 406.54 906.06 408.524 907.148C410.54 908.236 412.092 909.788 413.18 911.804C414.3 913.788 414.86 916.076 414.86 918.668ZM407.9 916.748C407.868 915.02 407.244 913.644 406.028 912.62C404.812 911.564 403.324 911.036 401.564 911.036C399.9 911.036 398.492 911.548 397.34 912.572C396.22 913.564 395.532 914.956 395.276 916.748H407.9ZM426.485 897.02V932.54H419.765V897.02H426.485ZM457.845 918.668C457.845 919.628 457.781 920.492 457.653 921.26H438.213C438.373 923.18 439.045 924.684 440.229 925.772C441.413 926.86 442.869 927.404 444.597 927.404C447.093 927.404 448.869 926.332 449.925 924.188H457.173C456.405 926.748 454.933 928.86 452.757 930.524C450.581 932.156 447.909 932.972 444.741 932.972C442.181 932.972 439.877 932.412 437.829 931.292C435.813 930.14 434.229 928.524 433.077 926.444C431.957 924.364 431.396 921.964 431.396 919.244C431.396 916.492 431.957 914.076 433.077 911.996C434.197 909.916 435.765 908.316 437.781 907.196C439.797 906.076 442.117 905.516 444.741 905.516C447.269 905.516 449.525 906.06 451.509 907.148C453.525 908.236 455.077 909.788 456.165 911.804C457.285 913.788 457.845 916.076 457.845 918.668ZM450.885 916.748C450.853 915.02 450.229 913.644 449.013 912.62C447.797 911.564 446.309 911.036 444.549 911.036C442.885 911.036 441.477 911.548 440.325 912.572C439.205 913.564 438.517 914.956 438.261 916.748H450.885ZM470.574 911.468V924.332C470.574 925.228 470.782 925.884 471.198 926.3C471.646 926.684 472.382 926.876 473.406 926.876H476.526V932.54H472.302C466.638 932.54 463.806 929.788 463.806 924.284V911.468H460.638V905.948H463.806V899.372H470.574V905.948H476.526V911.468H470.574ZM506.079 918.668C506.079 919.628 506.015 920.492 505.887 921.26H486.447C486.607 923.18 487.279 924.684 488.463 925.772C489.647 926.86 491.103 927.404 492.831 927.404C495.327 927.404 497.103 926.332 498.159 924.188H505.407C504.639 926.748 503.167 928.86 500.991 930.524C498.815 932.156 496.143 932.972 492.975 932.972C490.415 932.972 488.111 932.412 486.063 931.292C484.047 930.14 482.463 928.524 481.311 926.444C480.191 924.364 479.631 921.964 479.631 919.244C479.631 916.492 480.191 914.076 481.311 911.996C482.431 909.916 483.999 908.316 486.015 907.196C488.031 906.076 490.351 905.516 492.975 905.516C495.503 905.516 497.759 906.06 499.743 907.148C501.759 908.236 503.311 909.788 504.399 911.804C505.519 913.788 506.079 916.076 506.079 918.668ZM499.119 916.748C499.087 915.02 498.463 913.644 497.247 912.62C496.031 911.564 494.543 911.036 492.783 911.036C491.119 911.036 489.711 911.548 488.559 912.572C487.439 913.564 486.751 914.956 486.495 916.748H499.119ZM509.256 919.148C509.256 916.46 509.784 914.076 510.84 911.996C511.928 909.916 513.4 908.316 515.256 907.196C517.112 906.076 519.176 905.516 521.448 905.516C523.176 905.516 524.824 905.9 526.392 906.668C527.96 907.404 529.208 908.396 530.136 909.644V897.02H536.952V932.54H530.136V928.604C529.304 929.916 528.136 930.972 526.632 931.772C525.128 932.572 523.384 932.972 521.4 932.972C519.16 932.972 517.112 932.396 515.256 931.244C513.4 930.092 511.928 928.476 510.84 926.396C509.784 924.284 509.256 921.868 509.256 919.148ZM530.184 919.244C530.184 917.612 529.864 916.22 529.224 915.068C528.584 913.884 527.72 912.988 526.632 912.38C525.544 911.74 524.376 911.42 523.128 911.42C521.88 911.42 520.728 911.724 519.672 912.332C518.616 912.94 517.752 913.836 517.08 915.02C516.44 916.172 516.12 917.548 516.12 919.148C516.12 920.748 516.44 922.156 517.08 923.372C517.752 924.556 518.616 925.468 519.672 926.108C520.76 926.748 521.912 927.068 523.128 927.068C524.376 927.068 525.544 926.764 526.632 926.156C527.72 925.516 528.584 924.62 529.224 923.468C529.864 922.284 530.184 920.876 530.184 919.244ZM565.129 932.972C562.953 932.972 561.001 932.588 559.273 931.82C557.545 931.02 556.169 929.948 555.145 928.604C554.153 927.26 553.609 925.772 553.513 924.14H560.281C560.409 925.164 560.905 926.012 561.769 926.684C562.665 927.356 563.769 927.692 565.081 927.692C566.361 927.692 567.353 927.436 568.057 926.924C568.793 926.412 569.161 925.756 569.161 924.956C569.161 924.092 568.713 923.452 567.817 923.036C566.953 922.588 565.561 922.108 563.641 921.596C561.657 921.116 560.025 920.62 558.745 920.108C557.497 919.596 556.409 918.812 555.481 917.756C554.585 916.7 554.137 915.276 554.137 913.484C554.137 912.012 554.553 910.668 555.385 909.452C556.249 908.236 557.465 907.276 559.033 906.572C560.633 905.868 562.505 905.516 564.649 905.516C567.817 905.516 570.345 906.316 572.233 907.916C574.121 909.484 575.161 911.612 575.353 914.3H568.921C568.825 913.244 568.377 912.412 567.577 911.804C566.809 911.164 565.769 910.844 564.457 910.844C563.241 910.844 562.297 911.068 561.625 911.516C560.985 911.964 560.665 912.588 560.665 913.388C560.665 914.284 561.113 914.972 562.009 915.452C562.905 915.9 564.297 916.364 566.185 916.844C568.105 917.324 569.689 917.82 570.937 918.332C572.185 918.844 573.257 919.644 574.153 920.732C575.081 921.788 575.561 923.196 575.593 924.956C575.593 926.492 575.161 927.868 574.297 929.084C573.465 930.3 572.249 931.26 570.649 931.964C569.081 932.636 567.241 932.972 565.129 932.972ZM592.917 932.972C590.357 932.972 588.053 932.412 586.005 931.292C583.957 930.14 582.341 928.524 581.157 926.444C580.005 924.364 579.429 921.964 579.429 919.244C579.429 916.524 580.021 914.124 581.205 912.044C582.421 909.964 584.069 908.364 586.149 907.244C588.229 906.092 590.549 905.516 593.109 905.516C595.669 905.516 597.989 906.092 600.069 907.244C602.149 908.364 603.781 909.964 604.965 912.044C606.181 914.124 606.789 916.524 606.789 919.244C606.789 921.964 606.165 924.364 604.917 926.444C603.701 928.524 602.037 930.14 599.925 931.292C597.845 932.412 595.509 932.972 592.917 932.972ZM592.917 927.116C594.133 927.116 595.269 926.828 596.325 926.252C597.413 925.644 598.277 924.748 598.917 923.564C599.557 922.38 599.877 920.94 599.877 919.244C599.877 916.716 599.205 914.78 597.861 913.436C596.549 912.06 594.933 911.372 593.013 911.372C591.093 911.372 589.477 912.06 588.165 913.436C586.885 914.78 586.245 916.716 586.245 919.244C586.245 921.772 586.869 923.724 588.117 925.1C589.397 926.444 590.997 927.116 592.917 927.116ZM644.742 905.564C648.006 905.564 650.63 906.572 652.614 908.588C654.63 910.572 655.638 913.356 655.638 916.94V932.54H648.918V917.852C648.918 915.772 648.39 914.188 647.334 913.1C646.278 911.98 644.838 911.42 643.014 911.42C641.19 911.42 639.734 911.98 638.646 913.1C637.59 914.188 637.062 915.772 637.062 917.852V932.54H630.342V917.852C630.342 915.772 629.814 914.188 628.758 913.1C627.702 911.98 626.262 911.42 624.438 911.42C622.582 911.42 621.11 911.98 620.022 913.1C618.966 914.188 618.438 915.772 618.438 917.852V932.54H611.718V905.948H618.438V909.164C619.302 908.044 620.406 907.164 621.75 906.524C623.126 905.884 624.63 905.564 626.262 905.564C628.342 905.564 630.198 906.012 631.83 906.908C633.462 907.772 634.726 909.02 635.622 910.652C636.486 909.116 637.734 907.884 639.366 906.956C641.03 906.028 642.822 905.564 644.742 905.564ZM686.735 918.668C686.735 919.628 686.671 920.492 686.543 921.26H667.103C667.263 923.18 667.935 924.684 669.119 925.772C670.303 926.86 671.759 927.404 673.487 927.404C675.983 927.404 677.759 926.332 678.815 924.188H686.063C685.295 926.748 683.823 928.86 681.647 930.524C679.471 932.156 676.799 932.972 673.631 932.972C671.071 932.972 668.767 932.412 666.719 931.292C664.703 930.14 663.119 928.524 661.967 926.444C660.847 924.364 660.287 921.964 660.287 919.244C660.287 916.492 660.847 914.076 661.967 911.996C663.087 909.916 664.655 908.316 666.671 907.196C668.687 906.076 671.007 905.516 673.631 905.516C676.159 905.516 678.415 906.06 680.399 907.148C682.415 908.236 683.967 909.788 685.055 911.804C686.175 913.788 686.735 916.076 686.735 918.668ZM679.775 916.748C679.743 915.02 679.119 913.644 677.903 912.62C676.687 911.564 675.199 911.036 673.439 911.036C671.775 911.036 670.367 911.548 669.215 912.572C668.095 913.564 667.407 914.956 667.151 916.748H679.775ZM699.464 911.468V924.332C699.464 925.228 699.672 925.884 700.088 926.3C700.536 926.684 701.272 926.876 702.296 926.876H705.416V932.54H701.192C695.528 932.54 692.696 929.788 692.696 924.284V911.468H689.528V905.948H692.696V899.372H699.464V905.948H705.416V911.468H699.464ZM725.226 905.564C727.242 905.564 729.034 906.012 730.602 906.908C732.17 907.772 733.386 909.068 734.25 910.796C735.146 912.492 735.594 914.54 735.594 916.94V932.54H728.874V917.852C728.874 915.74 728.346 914.124 727.29 913.004C726.234 911.852 724.794 911.276 722.97 911.276C721.114 911.276 719.642 911.852 718.554 913.004C717.498 914.124 716.97 915.74 716.97 917.852V932.54H710.25V897.02H716.97V909.26C717.834 908.108 718.986 907.212 720.426 906.572C721.866 905.9 723.466 905.564 725.226 905.564ZM745.392 902.78C744.208 902.78 743.216 902.412 742.416 901.676C741.648 900.908 741.264 899.964 741.264 898.844C741.264 897.724 741.648 896.796 742.416 896.06C743.216 895.292 744.208 894.908 745.392 894.908C746.576 894.908 747.552 895.292 748.32 896.06C749.12 896.796 749.52 897.724 749.52 898.844C749.52 899.964 749.12 900.908 748.32 901.676C747.552 902.412 746.576 902.78 745.392 902.78ZM748.704 905.948V932.54H741.984V905.948H748.704ZM770.079 905.564C773.247 905.564 775.807 906.572 777.759 908.588C779.711 910.572 780.687 913.356 780.687 916.94V932.54H773.967V917.852C773.967 915.74 773.439 914.124 772.383 913.004C771.327 911.852 769.887 911.276 768.063 911.276C766.207 911.276 764.735 911.852 763.647 913.004C762.591 914.124 762.063 915.74 762.063 917.852V932.54H755.343V905.948H762.063V909.26C762.959 908.108 764.095 907.212 765.471 906.572C766.879 905.9 768.415 905.564 770.079 905.564ZM797.494 905.516C799.478 905.516 801.222 905.916 802.726 906.716C804.23 907.484 805.414 908.492 806.278 909.74V905.948H813.046V932.732C813.046 935.196 812.55 937.388 811.558 939.308C810.566 941.26 809.078 942.796 807.094 943.916C805.11 945.068 802.71 945.644 799.894 945.644C796.118 945.644 793.014 944.764 790.582 943.004C788.182 941.244 786.822 938.844 786.502 935.804H793.174C793.526 937.02 794.278 937.98 795.43 938.684C796.614 939.42 798.038 939.788 799.702 939.788C801.654 939.788 803.238 939.196 804.454 938.012C805.67 936.86 806.278 935.1 806.278 932.732V928.604C805.414 929.852 804.214 930.892 802.678 931.724C801.174 932.556 799.446 932.972 797.494 932.972C795.254 932.972 793.206 932.396 791.35 931.244C789.494 930.092 788.022 928.476 786.934 926.396C785.878 924.284 785.35 921.868 785.35 919.148C785.35 916.46 785.878 914.076 786.934 911.996C788.022 909.916 789.478 908.316 791.302 907.196C793.158 906.076 795.222 905.516 797.494 905.516ZM806.278 919.244C806.278 917.612 805.958 916.22 805.318 915.068C804.678 913.884 803.814 912.988 802.726 912.38C801.638 911.74 800.47 911.42 799.222 911.42C797.974 911.42 796.822 911.724 795.766 912.332C794.71 912.94 793.846 913.836 793.174 915.02C792.534 916.172 792.214 917.548 792.214 919.148C792.214 920.748 792.534 922.156 793.174 923.372C793.846 924.556 794.71 925.468 795.766 926.108C796.854 926.748 798.006 927.068 799.222 927.068C800.47 927.068 801.638 926.764 802.726 926.156C803.814 925.516 804.678 924.62 805.318 923.468C805.958 922.284 806.278 920.876 806.278 919.244Z" fill="white"/>
</g>
<defs>
<clipPath id="clip0_5_11">
<rect width="1228.46" height="956" fill="white"/>
</clipPath>
</defs>
</svg>
