<?xml version="1.0" encoding="UTF-8"?>
<svg id="Layer_1" data-name="Layer 1" xmlns="http://www.w3.org/2000/svg" xmlns:xlink="http://www.w3.org/1999/xlink" viewBox="0 0 169.56 66.45">
  <defs>
    <style>
      .cls-1 {
        fill: #282827;
      }

      .cls-2 {
        fill: url(#linear-gradient-2);
      }

      .cls-3 {
        fill: url(#New_Gradient_Swatch-7);
      }

      .cls-4 {
        fill: url(#New_Gradient_Swatch-6);
      }

      .cls-5 {
        font-family: Poppins-SemiBold, Poppins;
        font-size: 23.48px;
        font-weight: 600;
      }

      .cls-6 {
        fill: url(#New_Gradient_Swatch);
      }

      .cls-7 {
        fill: url(#linear-gradient-6);
      }

      .cls-8 {
        fill: url(#New_Gradient_Swatch-5);
      }

      .cls-9 {
        fill: url(#New_Gradient_Swatch-8);
      }

      .cls-10 {
        fill: url(#New_Gradient_Swatch-4);
      }

      .cls-11 {
        fill: url(#New_Gradient_Swatch-3);
      }

      .cls-12 {
        fill: url(#linear-gradient-5);
      }

      .cls-13 {
        fill: url(#linear-gradient-3);
      }

      .cls-14 {
        fill: url(#linear-gradient);
      }

      .cls-15 {
        fill: url(#New_Gradient_Swatch-9);
      }

      .cls-16 {
        fill: #231f20;
      }

      .cls-17 {
        fill: url(#linear-gradient-4);
      }

      .cls-18 {
        fill: url(#New_Gradient_Swatch-2);
      }
    </style>
    <linearGradient id="New_Gradient_Swatch" data-name="New Gradient Swatch" x1="16.37" y1="31.04" x2="29.15" y2="23.71" gradientUnits="userSpaceOnUse">
      <stop offset="0" stop-color="#f43b6c"/>
      <stop offset=".1" stop-color="#ea2e5f"/>
      <stop offset=".38" stop-color="#d40f40"/>
      <stop offset=".45" stop-color="#d92246"/>
      <stop offset=".59" stop-color="#e55358"/>
      <stop offset=".73" stop-color="#f48a6c"/>
      <stop offset=".79" stop-color="#f48e69"/>
      <stop offset=".86" stop-color="#f79c63"/>
      <stop offset=".94" stop-color="#fab258"/>
      <stop offset="1" stop-color="#ffcb4d"/>
    </linearGradient>
    <linearGradient id="New_Gradient_Swatch-2" data-name="New Gradient Swatch" x1="17.51" y1="30.38" x2="28.2" y2="24.26" xlink:href="#New_Gradient_Swatch"/>
    <linearGradient id="New_Gradient_Swatch-3" data-name="New Gradient Swatch" x1="32.32" y1="31.89" x2="32.09" y2="20.64" xlink:href="#New_Gradient_Swatch"/>
    <linearGradient id="New_Gradient_Swatch-4" data-name="New Gradient Swatch" x1="32.3" y1="30.59" x2="32.11" y2="21.41" xlink:href="#New_Gradient_Swatch"/>
    <linearGradient id="New_Gradient_Swatch-5" data-name="New Gradient Swatch" x1="18.84" y1="38.09" x2="15.03" y2="21.63" xlink:href="#New_Gradient_Swatch"/>
    <linearGradient id="New_Gradient_Swatch-6" data-name="New Gradient Swatch" x1="18.78" y1="36.97" x2="15.97" y2="25.99" xlink:href="#New_Gradient_Swatch"/>
    <linearGradient id="New_Gradient_Swatch-7" data-name="New Gradient Swatch" x1="65.22" y1="38.09" x2="61.41" y2="21.63" gradientTransform="translate(100.57) rotate(-180) scale(1 -1)" xlink:href="#New_Gradient_Swatch"/>
    <linearGradient id="New_Gradient_Swatch-8" data-name="New Gradient Swatch" x1="65.16" y1="36.97" x2="62.35" y2="25.99" gradientTransform="translate(100.57) rotate(-180) scale(1 -1)" xlink:href="#New_Gradient_Swatch"/>
    <linearGradient id="linear-gradient" x1="20.57" y1="30.25" x2="28.26" y2="18.04" gradientUnits="userSpaceOnUse">
      <stop offset="0" stop-color="#f43b6c"/>
      <stop offset=".1" stop-color="#ea2e5f"/>
      <stop offset=".38" stop-color="#d40f40"/>
      <stop offset=".45" stop-color="#d92246"/>
      <stop offset=".59" stop-color="#e55358"/>
      <stop offset=".73" stop-color="#f48a6c"/>
      <stop offset=".79" stop-color="#f48e69"/>
      <stop offset=".86" stop-color="#f79c63"/>
      <stop offset=".94" stop-color="#fab258"/>
      <stop offset="1" stop-color="#ffcb4d"/>
    </linearGradient>
    <linearGradient id="New_Gradient_Swatch-9" data-name="New Gradient Swatch" x1="18.83" y1="31.35" x2="26.37" y2="18.3" xlink:href="#New_Gradient_Swatch"/>
    <linearGradient id="linear-gradient-2" x1="23.76" y1="28.31" x2="36.75" y2="28.31" gradientUnits="userSpaceOnUse">
      <stop offset="0" stop-color="#ee4036"/>
      <stop offset=".32" stop-color="#f05a28"/>
      <stop offset="1" stop-color="#ec1c24"/>
    </linearGradient>
    <linearGradient id="linear-gradient-3" x1="29.73" x2="34.75" xlink:href="#linear-gradient-2"/>
    <linearGradient id="linear-gradient-4" x1="30.7" y1="31.21" x2="30.7" y2="13.75" xlink:href="#linear-gradient"/>
    <linearGradient id="linear-gradient-5" x1="33.01" y1="28.62" x2="30.68" y2="19.02" xlink:href="#linear-gradient"/>
    <linearGradient id="linear-gradient-6" x1="38.18" y1="30.5" x2="16.66" y2="42.92" xlink:href="#linear-gradient"/>
  </defs>
  <g>
    <path class="cls-6" d="m22.79,31.94c-.23,0-.46-.08-.64-.24l-.4-.35c-.21-.11-5.43-2.09-4.88-4.74.25-1.18,1.85-1.62,4.27-2.17,1.89-.43,4.02-.91,4.59-2.17.16-.35.51-.58.89-.58.05,0,.1,0,.14.01.43.06.77.41.83.84.14,1.07-.09,2.1-.67,3.06-.31.51-.62,1-.91,1.46-1.03,1.64-1.88,2.98-2.29,4.21-.1.31-.35.55-.67.63-.09.02-.17.03-.26.03Zm-2.75-4.52c.46.36,1.15.81,1.95,1.16.33-.63.71-1.26,1.11-1.91-.46.12-.92.22-1.36.32-.77.17-1.32.31-1.71.42Z"/>
    <path class="cls-18" d="m21.36,25.39c-1.43.32-3.39.77-3.53,1.42-.29,1.39,2.7,3.01,4.1,3.53.17.06.33.15.46.27l.4.35c.45-1.34,1.34-2.76,2.34-4.34.3-.48.62-.99.95-1.53.51-.84.63-1.66.53-2.42-.77,1.7-3.14,2.24-5.26,2.72Zm3.14.89c-.78,1.24-1.53,2.42-2.04,3.55-.08-.04-.17-.08-.26-.11-1.73-.64-3.72-2.01-3.66-2.74.35-.35,2.19-.76,2.99-.95,1.33-.3,2.76-.62,3.9-1.24-.32.52-.63,1.02-.93,1.49Z"/>
    <path class="cls-11" d="m35.79,30.08c-.19,0-.37-.05-.54-.16l-.61-.4c-.26-.17-.42-.45-.44-.76,0-.06,0-.12-.01-.18-.15.09-.32.13-.49.13-.18,0-.37-.05-.54-.16l-1.97-1.29s-2.59.08-2.6.08c-.4,0-.75-.24-.9-.61-.16-.38-.06-.81.24-1.09,1.04-.96,1.68-1.88,1.92-2.74.19-.68.12-1.33-.19-1.93-.23-.45-.09-.99.33-1.27.16-.11.35-.16.53-.16.29,0,.57.13.76.36.75.92,1.62,1.8,2.39,2.57.79.8,1.55,1.55,2.08,2.25.92,1.19,1.27,2.76,1,4.52-.05.33-.26.61-.57.75-.13.06-.26.09-.4.09Zm-3.93-4.86c.21.05.41.15.59.29l.53.41c-.28-.36-.6-.74-.93-1.14-.06.15-.12.29-.19.44Z"/>
    <path class="cls-10" d="m32.98,23.17c-.79-.8-1.68-1.68-2.45-2.64.42.81.51,1.72.26,2.64-.32,1.18-1.2,2.28-2.19,3.2l2.88-.09,2.23,1.46-1.86-1.45c-.11-.08-.23-.13-.36-.13,0,0-1.3.05-1.3.05.62-.92,1.04-1.83,1.25-2.74.06-.26.1-.53.13-.79.32.4.64.78.95,1.14.76.91,1.47,1.76,1.95,2.49.48.75.67,1.6.72,2.4l.61.4c.16-1.09.13-2.56-.81-3.78-.5-.64-1.23-1.38-2-2.15Z"/>
    <path class="cls-8" d="m19.62,31.33c-.09-4.29-6.09-5.62-6.09-5.62,0,0,1.61,1.8,1.72,3.41s-.39,5.62,2.15,8.22c2.53,2.6,2.69,6.92,2.69,6.92,0,0-.37-8.64-.46-12.93Z"/>
    <path class="cls-4" d="m19.11,38.41c-.33-.56-.73-1.09-1.2-1.58-1.9-1.95-1.91-4.82-1.92-6.72,0-.4,0-.75-.02-1.04-.04-.67-.29-1.34-.6-1.94,1.56.72,3.47,2.04,3.51,4.21.04,1.88.13,4.6.22,7.06Z"/>
    <path class="cls-3" d="m34.57,31.33c.09-4.29,6.09-5.62,6.09-5.62,0,0-1.61,1.8-1.72,3.41s.39,5.62-2.15,8.22c-2.53,2.6-2.69,6.92-2.69,6.92,0,0,.37-8.64.46-12.93Z"/>
    <path class="cls-9" d="m35.08,38.41c.33-.56.73-1.09,1.2-1.58,1.9-1.95,1.91-4.82,1.92-6.72,0-.4,0-.75.02-1.04.04-.67.29-1.34.6-1.94-1.56.72-3.47,2.04-3.51,4.21-.04,1.88-.13,4.6-.22,7.06Z"/>
    <path class="cls-14" d="m25.39,17.98s.46.97,0,3.79c-.46,2.82-8.37,1.85-8.99,4.8s4.99,5.01,4.99,5.01l3.22,2.79c-1.7-2.18.27-4.56,2.76-8.62,2.49-4.06-1.97-7.76-1.97-7.76Zm.7,7.12c-.33.54-.65,1.05-.95,1.53-1,1.58-1.89,3-2.34,4.34l-.4-.35c-.13-.12-.29-.21-.46-.27-1.41-.52-4.39-2.14-4.1-3.53.14-.65,2.1-1.09,3.53-1.42,2.12-.48,4.49-1.02,5.26-2.72.1.76-.02,1.59-.53,2.42Z"/>
    <path class="cls-15" d="m18.54,26.98c-.06.73,1.93,2.1,3.66,2.74.09.03.18.07.26.11.51-1.13,1.26-2.31,2.04-3.55.3-.47.61-.97.93-1.49-1.14.62-2.57.94-3.9,1.24-.8.18-2.64.6-2.99.95Z"/>
    <path class="cls-2" d="m34.75,28.89c0-.06-.01-.13-.02-.19l-1.48-.97,1.49,1.16Z"/>
    <path class="cls-13" d="m34.75,28.89c0-.06-.01-.13-.02-.19l-1.48-.97,1.49,1.16Z"/>
    <g>
      <path class="cls-17" d="m36.03,24.51c-2.25-2.91-8.07-6.74-5.82-10.76,0,0-2.91,4.05-.96,7.22s-5.05,6.85-5.05,6.85l6.89-.22,5.49,3.61s1.69-3.79-.55-6.7Zm-.24,4.59l-.61-.4c0,.06.01.13.02.19l-1.49-1.16-2.23-1.46-2.88.09c.99-.92,1.87-2.01,2.19-3.2.25-.92.16-1.82-.26-2.64.78.96,1.66,1.85,2.45,2.64.77.78,1.5,1.51,2,2.15.94,1.21.97,2.69.81,3.78Z"/>
      <path class="cls-12" d="m32.5,23.81c-.3-.36-.62-.74-.95-1.14-.03.26-.07.53-.13.79-.21.9-.63,1.82-1.25,2.74,0,0,1.29-.05,1.3-.05.13,0,.26.05.36.13l1.86,1.45,1.48.97c-.05-.8-.24-1.66-.72-2.4-.47-.73-1.19-1.58-1.95-2.49Z"/>
    </g>
    <path class="cls-7" d="m17.28,27.75l9.79-1.82,9.41,1.6s.75,15.99.28,16.91-9.38,7.11-9.38,7.11c0,0-9.43-4.53-9.69-7.11s-.41-16.69-.41-16.69Z"/>
    <g>
      <path class="cls-1" d="m27.1,25.27l-10.29,1.88v15.76c0,1.91.98,3.68,2.6,4.69l7.69,4.8,7.7-4.82c1.62-1.01,2.6-2.78,2.6-4.69v-15.74l-10.29-1.88Zm8.96,17.63c0,1.46-.74,2.79-1.97,3.56l-6.99,4.38-6.98-4.36c-1.24-.77-1.98-2.11-1.98-3.57v-14.65l8.96-1.64,8.96,1.64v14.63Z"/>
      <path class="cls-1" d="m20.13,29.93v12.99c0,.77.39,1.47,1.04,1.88l5.93,3.7,5.93-3.72c.65-.41,1.04-1.11,1.04-1.87v-12.97l-6.97-1.28-6.97,1.28Z"/>
    </g>
  </g>
  <text class="cls-5" transform="translate(41.11 46.21)"><tspan x="0" y="0">Heat Help</tspan></text>
  <path d="m13.2,34.21H3.69c.08.94.41,1.67.99,2.21s1.29.8,2.14.8c1.22,0,2.09-.52,2.61-1.57h3.54c-.38,1.25-1.1,2.28-2.16,3.09-1.06.81-2.37,1.21-3.92,1.21-1.25,0-2.38-.28-3.37-.83-.99-.56-1.77-1.34-2.32-2.36-.56-1.02-.83-2.19-.83-3.52s.27-2.53.82-3.54,1.31-1.8,2.3-2.35c.99-.55,2.12-.82,3.4-.82s2.34.27,3.32.8,1.74,1.29,2.28,2.27.81,2.1.81,3.37c0,.47-.03.89-.09,1.27Zm-3.31-2.21c-.02-.84-.32-1.52-.92-2.03-.59-.51-1.32-.76-2.18-.76-.81,0-1.5.25-2.05.74-.56.49-.9,1.18-1.02,2.05h6.17Z"/>
  <path d="m169.11,34.21h-9.51c.08.94.41,1.67.99,2.21s1.29.8,2.14.8c1.22,0,2.09-.52,2.61-1.57h3.54c-.38,1.25-1.1,2.28-2.16,3.09-1.06.81-2.37,1.21-3.92,1.21-1.25,0-2.38-.28-3.37-.83-.99-.56-1.77-1.34-2.32-2.36-.56-1.02-.83-2.19-.83-3.52s.27-2.53.82-3.54,1.31-1.8,2.3-2.35c.99-.55,2.12-.82,3.4-.82s2.34.27,3.32.8,1.74,1.29,2.28,2.27.81,2.1.81,3.37c0,.47-.03.89-.09,1.27Zm-3.31-2.21c-.02-.84-.32-1.52-.92-2.03-.59-.51-1.32-.76-2.18-.76-.81,0-1.5.25-2.05.74-.56.49-.9,1.18-1.02,2.05h6.17Z"/>
  <path d="m94.76,60.36h-9.51c.08.94.41,1.67.99,2.21s1.29.8,2.14.8c1.22,0,2.09-.52,2.61-1.57h3.54c-.38,1.25-1.1,2.28-2.16,3.09-1.06.81-2.37,1.21-3.92,1.21-1.25,0-2.38-.28-3.37-.83-.99-.56-1.77-1.34-2.32-2.36-.56-1.02-.83-2.19-.83-3.52s.27-2.53.82-3.54,1.31-1.8,2.3-2.35c.99-.55,2.12-.82,3.4-.82s2.34.27,3.32.8,1.74,1.29,2.28,2.27.81,2.1.81,3.37c0,.47-.03.89-.09,1.27Zm-3.31-2.21c-.02-.84-.32-1.52-.92-2.03-.59-.51-1.32-.76-2.18-.76-.81,0-1.5.25-2.05.74-.56.49-.9,1.18-1.02,2.05h6.17Z"/>
  <path d="m94.76,8.06h-9.51c.08.94.41,1.67.99,2.21s1.29.8,2.14.8c1.22,0,2.09-.52,2.61-1.57h3.54c-.38,1.25-1.1,2.28-2.16,3.09-1.06.81-2.37,1.21-3.92,1.21-1.25,0-2.38-.28-3.37-.83-.99-.56-1.77-1.34-2.32-2.36-.56-1.02-.83-2.19-.83-3.52s.27-2.53.82-3.54,1.31-1.8,2.3-2.35c.99-.55,2.12-.82,3.4-.82s2.34.27,3.32.8,1.74,1.29,2.28,2.27.81,2.1.81,3.37c0,.47-.03.89-.09,1.27Zm-3.31-2.21c-.02-.84-.32-1.52-.92-2.03-.59-.51-1.32-.76-2.18-.76-.81,0-1.5.25-2.05.74-.56.49-.9,1.18-1.02,2.05h6.17Z"/>
  <path class="cls-16" d="m156.03,14.04v38.37H13.53V14.04h142.5m.25-.25H13.28v38.87h143V13.79h0Z"/>
  <path class="cls-16" d="m169.2,0h-2v.36h2v-.36h0Zm-4,0h-2v.36h2v-.36h0Zm-4,0h-2v.36h2v-.36h0Zm-4,0h-2v.36h2v-.36h0Zm-4,0h-2v.36h2v-.36h0Zm-4,0h-2v.36h2v-.36h0Zm-4,0h-2v.36h2v-.36h0Zm-4,0h-2v.36h2v-.36h0Zm-4,0h-2v.36h2v-.36h0Zm-4,0h-2v.36h2v-.36h0Zm-4,0h-2v.36h2v-.36h0Zm-4,0h-2v.36h2v-.36h0Zm-4,0h-2v.36h2v-.36h0Zm-4,0h-2v.36h2v-.36h0Zm-4,0h-2v.36h2v-.36h0Zm-4,0h-2v.36h2v-.36h0Zm-4,0h-2v.36h2v-.36h0Zm-4,0h-2v.36h2v-.36h0Zm-4,0h-2v.36h2v-.36h0Zm-4,0h-2v.36h2v-.36h0Zm-4,0h-2v.36h2v-.36h0Zm-4,0h-2v.36h2v-.36h0Zm-4,0h-2v.36h2v-.36h0Zm-4,0h-2v.36h2v-.36h0Zm-4,0h-2v.36h2v-.36h0Zm-4,0h-2v.36h2v-.36h0Zm-4,0h-2v.36h2v-.36h0Zm-4,0h-2v.36h2v-.36h0Zm-4,0h-2v.36h2v-.36h0Zm-4,0h-2v.36h2v-.36h0Zm-4,0h-2v.36h2v-.36h0Zm-4,0h-2v.36h2v-.36h0Zm-4,0h-2v.36h2v-.36h0Zm-4,0h-2v.36h2v-.36h0Zm-4,0h-2v.36h2v-.36h0Zm-4,0h-2v.36h2v-.36h0Zm-4,0h-2v.36h2v-.36h0Zm-4,0h-2v.36h2v-.36h0Zm-4,0h-2v.36h2v-.36h0Zm-4,0h-2v.36h2v-.36h0Zm-4,0h-2v.36h2v-.36h0Zm-4,0h-2v.36h2v-.36h0ZM1.2,0H0v1.51h.36V.36h.84v-.36h0ZM.36,3.51h-.36v2h.36v-2H.36ZM.36,7.51h-.36v2h.36v-2H.36Zm0,4h-.36v2h.36v-2H.36Zm0,4h-.36v2h.36v-2H.36Zm0,4h-.36v2h.36v-2H.36Zm0,4h-.36v2h.36v-2H.36Zm0,4h-.36v2h.36v-2H.36Zm0,4h-.36v2h.36v-2H.36Zm0,4h-.36v2h.36v-2H.36Zm0,4h-.36v2h.36v-2H.36Zm0,4h-.36v2h.36v-2H.36Zm0,4h-.36v2h.36v-2H.36Zm0,4h-.36v2h.36v-2H.36Zm0,4h-.36v2h.36v-2H.36Zm0,4h-.36v2h.36v-2H.36Zm0,4h-.36v2h.36v-2H.36Zm3.42,2.58H1.78v.36h2v-.36h0Zm4,0h-2v.36h2v-.36h0Zm4,0h-2v.36h2v-.36h0Zm4,0h-2v.36h2v-.36h0Zm4,0h-2v.36h2v-.36h0Zm4,0h-2v.36h2v-.36h0Zm4,0h-2v.36h2v-.36h0Zm4,0h-2v.36h2v-.36h0Zm4,0h-2v.36h2v-.36h0Zm4,0h-2v.36h2v-.36h0Zm4,0h-2v.36h2v-.36h0Zm4,0h-2v.36h2v-.36h0Zm4,0h-2v.36h2v-.36h0Zm4,0h-2v.36h2v-.36h0Zm4,0h-2v.36h2v-.36h0Zm4,0h-2v.36h2v-.36h0Zm4,0h-2v.36h2v-.36h0Zm4,0h-2v.36h2v-.36h0Zm4,0h-2v.36h2v-.36h0Zm4,0h-2v.36h2v-.36h0Zm4,0h-2v.36h2v-.36h0Zm4,0h-2v.36h2v-.36h0Zm4,0h-2v.36h2v-.36h0Zm4,0h-2v.36h2v-.36h0Zm4,0h-2v.36h2v-.36h0Zm4,0h-2v.36h2v-.36h0Zm4,0h-2v.36h2v-.36h0Zm4,0h-2v.36h2v-.36h0Zm4,0h-2v.36h2v-.36h0Zm4,0h-2v.36h2v-.36h0Zm4,0h-2v.36h2v-.36h0Zm4,0h-2v.36h2v-.36h0Zm4,0h-2v.36h2v-.36h0Zm4,0h-2v.36h2v-.36h0Zm4,0h-2v.36h2v-.36h0Zm4,0h-2v.36h2v-.36h0Zm4,0h-2v.36h2v-.36h0Zm4,0h-2v.36h2v-.36h0Zm4,0h-2v.36h2v-.36h0Zm4,0h-2v.36h2v-.36h0Zm4,0h-2v.36h2v-.36h0Zm4,0h-2v.36h2v-.36h0Zm1.78-2.58h-.36v2h.36v-2h0Zm0-4h-.36v2h.36v-2h0Zm0-4h-.36v2h.36v-2h0Zm0-4h-.36v2h.36v-2h0Zm0-4h-.36v2h.36v-2h0Zm0-4h-.36v2h.36v-2h0Zm0-4h-.36v2h.36v-2h0Zm0-4h-.36v2h.36v-2h0Zm0-4h-.36v2h.36v-2h0Zm0-4h-.36v2h.36v-2h0Zm0-4h-.36v2h.36v-2h0Zm0-4h-.36v2h.36v-2h0Zm0-4h-.36v2h.36v-2h0Zm0-4h-.36v2h.36v-2h0Zm0-4h-.36v2h.36v-2h0Zm0-4h-.36v2h.36v-2h0Zm0-3.15h-.36v1.15h.36V.36h0Z"/>
</svg>