<?xml version="1.0" encoding="UTF-8"?>
<svg id="black_and_white" data-name="black and white" xmlns="http://www.w3.org/2000/svg" viewBox="0 0 77.73 33.63">
  <defs>
    <style>
      .cls-1 {
        font-family: Poppins-SemiBold, Poppins;
        font-size: 12px;
        font-weight: 600;
      }
    </style>
  </defs>
  <g>
    <path d="m16.63,11.35l-.09-.02c-.07-.44-.23-.91-.56-1.33-1.15-1.5-4.15-3.46-2.99-5.53,0,0-1.5,2.08-.49,3.71.48.77-.09,1.6-.81,2.26h-.06c1.02-2.02-1.12-3.8-1.12-3.8,0,0,.23.5,0,1.95s-4.3.95-4.62,2.47c0,.04,0,.09-.01.13-.75-.41-1.46-.57-1.46-.57,0,0,.83.93.88,1.75.05.75-.14,2.52.8,3.84v3.25c0,.98.51,1.89,1.34,2.41l3.95,2.47,3.95-2.48c.83-.52,1.33-1.43,1.33-2.41v-3.24c.94-1.32.75-3.09.8-3.84.06-.83.88-1.75.88-1.75,0,0-.9.2-1.74.73Zm-3.34-2.04c.13-.47.08-.94-.13-1.36.4.49.85.95,1.26,1.36.4.4.77.78,1.03,1.11.19.25.31.52.37.78l-.55-.1c-.03-.06-.06-.12-.1-.18-.24-.37-.61-.81-1-1.28-.16-.19-.32-.38-.49-.59-.01.13-.04.27-.07.41-.09.41-.29.82-.55,1.24l-.56-.1c.36-.39.65-.83.78-1.29Zm-1.9,1.78l3.18.58h0s.29.05.29.05h.02s.61.12.61.12l.39.07h.03s.07.02.07.02v7.52c0,.75-.38,1.43-1.01,1.83l-3.59,2.25-3.59-2.24c-.64-.4-1.02-1.08-1.02-1.83v-7.53h.07s.09-.03.09-.03l.43-.08,2.39-.44.49-.09.47-.09.51-.09.16-.03Zm-2.95-.63c1.09-.25,2.31-.52,2.7-1.4.05.39-.01.81-.27,1.24-.05.07-.09.14-.13.21l-.49.09c.09-.15.18-.29.28-.45-.59.32-1.32.48-2,.64-.33.07-.99.23-1.34.37l-.56.1s-.01-.05,0-.08c.07-.33,1.08-.56,1.81-.73Zm-2.76,2.42c0-.21,0-.39-.01-.53-.02-.34-.15-.69-.31-1,.18.08.38.19.56.31.06.04.11.08.17.12v3.73c-.41-.88-.41-1.89-.42-2.62Zm11.42-.53c0,.14-.01.33-.01.53,0,.73,0,1.74-.42,2.62v-3.73c.24-.17.49-.31.73-.42-.16.31-.28.65-.31,1Z"/>
    <path d="m9.57,12.46l-.46.08-.38.07-.59.11-.32.06v6.67c0,.39.2.75.53.96l3.05,1.9,3.05-1.91c.33-.21.53-.57.53-.96v-6.67l-3.58-.66-.89.16-.93.17Z"/>
  </g>
  <text class="cls-1" transform="translate(18.36 21.02)"><tspan x="0" y="0">Heat Help</tspan></text>
</svg>