<?xml version="1.0" encoding="UTF-8"?>
<svg id="Layer_1" data-name="Layer 1" xmlns="http://www.w3.org/2000/svg" xmlns:xlink="http://www.w3.org/1999/xlink" viewBox="0 0 612 358.19">
  <defs>
    <style>
      .cls-1 {
        fill: #fff;
      }

      .cls-2 {
        fill: #fff200;
      }

      .cls-3 {
        fill: url(#linear-gradient);
      }

      .cls-4 {
        fill: #231f20;
      }
    </style>
    <linearGradient id="linear-gradient" x1="466.32" y1="235.92" x2="466.32" y2="123.33" gradientUnits="userSpaceOnUse">
      <stop offset="0" stop-color="#fbb040"/>
      <stop offset="1" stop-color="#ed1c24"/>
    </linearGradient>
  </defs>
  <rect class="cls-1" width="612" height="358.19"/>
  <polygon class="cls-2" points="51.27 123.05 244.76 239.95 260.03 177.26 410.24 215.67 220.57 89.73 200.84 158.06 51.27 123.05"/>
  <rect class="cls-4" x="404.39" y="167.84" width="100.27" height="76.08" rx="36" ry="36"/>
  <rect class="cls-4" x="458.7" y="183.01" width="76.08" height="45.74" transform="translate(702.63 -290.87) rotate(90)"/>
  <rect class="cls-4" x="516.54" y="179.63" width="54.31" height="11.43"/>
  <rect class="cls-4" x="516.54" y="220.61" width="54.31" height="11.43"/>
  <path class="cls-3" d="m473.57,123.33s-3.98,30.33,7.61,42.65c11.59,12.32,23.91,26.81,19.2,43.48s-14.13,23.92-24.64,26.45c0,0,16.67-9.42,15.22-26.45-1.45-17.03-13.41-25.73-14.49-26.09s2.54,19.93-1.81,27.54c-4.35,7.61-6.16,10.51-10.87,10.87s-13.05-6.52-14.13-6.88-4.71-7.25-4.71-7.25c0,0-3.62,14.13,2.17,19.57,5.8,5.44,10.51,8.7,10.51,8.7,0,0-15.94-2.16-23.19-17.39s0-34.07,0-34.07c0,0,6.88-8.7,11.23-11.23,0,0-7.61,13.77,5.44,22.83,0,0,14.84,2.9,15.21-7.25s-3.25-11.96-8.69-17.03c-5.44-5.07-10.87-11.6-10.87-21.74,0,0,6.16,8.33,8.7,7.61,0,0-.36-9.78,3.99-18.12s9.06-11.38,14.13-16.2Z"/>
</svg>