<?xml version="1.0" encoding="UTF-8"?>
<svg id="Layer_1" data-name="Layer 1" xmlns="http://www.w3.org/2000/svg" viewBox="0 0 2144.18 2013.21">
  <defs>
    <style>
      .cls-1 {
        fill: #e31313;
      }

      .cls-2 {
        fill: #990305;
      }

      .cls-3 {
        fill: #ad0502;
      }

      .cls-4 {
        fill: #df0f0f;
      }

      .cls-5 {
        fill: #251f1f;
      }

      .cls-6 {
        fill: #1e181a;
      }

      .cls-7 {
        fill: #d20808;
      }
    </style>
  </defs>
  <path class="cls-1" d="M1072.17,0c-13.09,0-23.65,10.56-23.65,23.63V374.97c0,13.07,10.56,23.63,23.65,23.63s23.63-10.56,23.63-23.63V23.63c0-13.07-10.72-23.63-23.63-23.63Zm-221.93,409.8l-120.1-330.05c-4.42-12.29-17.96-18.6-30.26-14.02-12.29,4.42-18.6,17.96-14.18,30.26l120.26,330.05c4.42,12.29,17.96,18.6,30.26,14.18,12.29-4.58,18.6-18.12,14.02-30.42Zm-218.61,116.77l-225.69-269.04c-8.51-9.93-23.33-11.34-33.42-2.98-9.93,8.49-11.2,23.32-2.84,33.4l225.71,269.06c8.51,9.93,23.34,11.34,33.42,2.82,9.93-8.36,11.18-23.16,2.82-33.26Zm-165.49,184.57l-304.19-175.58c-11.36-6.62-25.84-2.69-32.31,8.51-6.47,11.34-2.69,25.84,8.67,32.31l304.19,175.74c11.34,6.47,25.68,2.53,32.31-8.67,6.47-11.34,2.69-25.84-8.67-32.31Zm-92.52,229.97L27.82,880.12c-12.93-2.21-25.22,6.29-27.43,19.22-2.37,12.77,6.31,25.07,19.08,27.43l345.95,60.99c12.93,2.21,25.22-6.47,27.43-19.24,2.21-12.91-6.31-25.2-19.24-27.41Zm19.24,266.99c-2.21-12.91-14.5-21.43-27.43-19.22l-345.95,60.99c-12.77,2.21-21.44,14.5-19.08,27.41,2.21,12.77,14.5,21.45,27.43,19.08l345.79-60.99c12.93-2.21,21.45-14.5,19.24-27.27Zm1731.86,41.78l-345.97-60.99c-12.91-2.21-25.05,6.31-27.41,19.22-2.21,12.77,6.31,25.07,19.22,27.27l345.97,60.99c12.77,2.37,25.07-6.31,27.27-19.08,2.37-12.91-6.31-25.2-19.08-27.41Zm19.08-350.54c-2.21-12.93-14.5-21.43-27.27-19.22l-345.97,60.99c-12.91,2.21-21.43,14.5-19.22,27.41,2.37,12.77,14.5,21.45,27.41,19.24l345.97-60.99c12.77-2.37,21.45-14.66,19.08-27.43Zm-129.25-355.26c-6.47-11.2-20.97-15.14-32.31-8.51l-304.19,175.58c-11.2,6.47-15.14,20.97-8.67,32.31,6.62,11.2,21.11,15.14,32.31,8.67l304.19-175.74c11.36-6.47,15.3-20.97,8.67-32.31Zm-242.88-289.53c-10.09-8.36-24.91-6.94-33.42,2.98l-225.71,269.04c-8.34,10.11-7.08,24.91,2.84,33.26,10.09,8.51,25.07,7.1,33.42-2.82l225.69-269.06c8.51-10.09,7.1-24.91-2.82-33.4Zm-327.37-188.83c-12.29-4.58-25.86,1.73-30.26,14.02l-120.12,330.05c-4.56,12.29,1.75,25.84,14.02,30.42,12.29,4.42,25.86-1.89,30.44-14.18l120.1-330.05c4.42-12.29-1.89-25.84-14.18-30.26Z"/>
  <path class="cls-7" d="M1072.17,504.52c-160.94,0-306.56,65.25-412.01,170.71-105.44,105.44-170.69,251.08-170.69,411.83v580.01H1654.71v-580.01c0-321.68-260.86-582.54-582.54-582.54Zm-363,271.57c-38.77,58.96-66.5,124.67-85.9,192.77-19.85,68.1-31.35,138.7-38.29,209.8-6.47,71.24-7.72,143.11-6.15,215.6-14.5-71.08-20.33-144.05-18.28-217.04,1.89-73.13,12.45-146.26,32.47-217.04,20.65-70.6,51.23-139.31,96.14-198.44,44.28-58.94,103.86-107.64,172.28-132.87-62.58,37.2-113.49,88.43-152.26,147.21Z"/>
  <path class="cls-4" d="M861.44,628.87c-62.58,37.2-113.49,88.43-152.26,147.21-38.77,58.96-66.5,124.67-85.9,192.77-19.85,68.1-31.35,138.7-38.29,209.8-6.47,71.24-7.72,143.11-6.15,215.6-14.5-71.08-20.33-144.05-18.28-217.04,1.89-73.13,12.45-146.26,32.47-217.04,20.65-70.6,51.23-139.31,96.14-198.44,44.28-58.94,103.86-107.64,172.28-132.87Z"/>
  <path class="cls-2" d="M1823.5,1776.46v71.64H320.65v-71.64c0-60.52,48.86-109.37,109.23-109.37h59.58v-.02H1654.71v.02h59.58c60.36,0,109.21,48.86,109.21,109.37Z"/>
  <path class="cls-6" d="M1978.91,1904.89v108.32H165.25v-108.32c0-31.15,36.49-56.41,81.5-56.41h73.91v-.39H1823.5v.39h73.91c45.01,0,81.5,25.26,81.5,56.41Z"/>
  <path class="cls-3" d="M367.85,1804.33c117.37-6.22,234.74-9.31,352.11-11.69,117.37-2.19,234.74-3.21,352.11-3.22,117.37-.02,234.74,1,352.11,3.18,117.37,2.36,234.74,5.48,352.11,11.73-117.37,6.25-234.74,9.37-352.11,11.73-117.37,2.19-234.74,3.21-352.11,3.18-117.37-.02-234.74-1.04-352.11-3.22-117.37-2.38-234.74-5.48-352.11-11.69Z"/>
  <path class="cls-5" d="M264.41,1955.52c134.61-6.22,269.22-9.31,403.84-11.69,134.61-2.19,269.22-3.21,403.84-3.22,134.61-.02,269.22,1,403.84,3.18,134.61,2.36,269.22,5.48,403.84,11.73-134.61,6.25-269.22,9.37-403.84,11.73-134.61,2.19-269.22,3.21-403.84,3.18-134.61-.02-269.22-1.04-403.84-3.22-134.61-2.38-269.22-5.48-403.84-11.69Z"/>
</svg>