<?xml version="1.0" encoding="utf-8"?>
<!-- Svg Vector Icons : http://www.onlinewebfonts.com/icon -->
<!DOCTYPE svg PUBLIC "-//W3C//DTD SVG 1.1//EN" "http://www.w3.org/Graphics/SVG/1.1/DTD/svg11.dtd">
<svg version="1.1" xmlns="http://www.w3.org/2000/svg" xmlns:xlink="http://www.w3.org/1999/xlink" x="0px" y="0px" viewBox="0 0 1000 1000" enable-background="new 0 0 1000 1000" xml:space="preserve">
<metadata> Svg Vector Icons : http://www.onlinewebfonts.com/icon </metadata>
<g><path d="M169.3,954.4C81.3,954.4,10,883,10,795V205.4c0-88,71.3-159.4,159.3-159.4h151.5c26.3,0,47.7,21.2,47.7,47.8l0,0c0,26.4-21.2,47.8-47.8,47.8H177.3c-37.3,10.6-61.1,34.4-71.7,71.7V787c10.6,37.3,34.4,61.1,71.7,71.7H751c37.3-10.6,61.1-34.4,71.7-71.7V619.7c0-26.4,21.2-47.7,47.8-47.8l0,0c26.4,0,47.8,21.4,47.8,47.9V795c0,88-71.3,159.4-159.3,159.4H169.3z M727.1,475.9c-9.8,0-17.9-1.9-23.9,0c-19.4-14.8-30.7-33.4-23.9-47.8v-47.8c-174.7-12-369.1,155.3-414.7,310.7c-10-34.1-15.6-70.2-15.6-107.6c0-207.9,218.8-430.2,430.2-442.2V93.4c-6.8-14.4,4.5-33,23.9-47.8c6,1.9,14.1,0,23.9,0c9.5,0,20.7,3.7,23.9,0l217.8,172.1c13.3,10.1,21.2,26.1,21.2,43c0,16.9-7.9,32.9-21.2,43L751,475.9C747.8,472.2,736.6,475.9,727.1,475.9z"/></g>
</svg>